<svg id="Layer_1" data-name="Layer 1" xmlns="http://www.w3.org/2000/svg" viewBox="0 0 338 372.52"><defs><style>.cls-1{fill:#fefefe;}.cls-2{fill:#7253b9;}.cls-3{fill:#392646;}.cls-4{fill:#6f51b7;}.cls-5{fill:#362241;}.cls-6{fill:#32203b;}.cls-7{fill:#6c51b3;}.cls-8{fill:#291a2f;}.cls-9{fill:#694cb0;}.cls-10{fill:#7054b5;}.cls-11{fill:#3b2848;}.cls-12{fill:#301f37;}.cls-13{fill:#5f43a4;}.cls-14{fill:#2e1d32;}.cls-15{fill:#f6b69d;}.cls-16{fill:#f4b096;}.cls-17{fill:#eaa589;}.cls-18{fill:#ec997a;}.cls-19{fill:#e7a083;}.cls-20{fill:#d58c6c;}.cls-21{fill:#de9578;}.cls-22{fill:#c47c5e;}.cls-23{fill:#f0aa90;}.cls-24{fill:#f8b49b;}.cls-25{fill:#2c2954;}.cls-26{fill:#fab99f;}.cls-27{fill:#fbc2a8;}.cls-28{fill:#fbbda3;}.cls-29{fill:#e8dee8;}.cls-30{fill:#a79ad1;}</style></defs><ellipse class="cls-1" cx="169" cy="186.26" rx="239" ry="263.41"/><path class="cls-2" d="M441.8,480.64c-1.67,1.62-4,1.1-5.92,1.38-5.06.73-10.18,1.3-15.24,2-13.76,1.81-27.54,1.3-41.32,1.45-7.41.08-14.74-1-22.1-1.5-7-.52-13.87-1.42-20.71-2.61-4.7-.82-9.66-.93-14-3.46-.62-2.25,1.81-1.86,2.6-3.22-4.37-3.42-4.16-9-6-13.77-2.59-6.51-1.91-13.26-2.14-20a73.47,73.47,0,0,1,1.17-14.95c.76-4.33,1-7.55-2.3-10.7-1.39-1.32-.89-5-3.75-4.32a7.49,7.49,0,0,0-5.72,6,2.38,2.38,0,0,1-.64,1.43c-1.32,1.21-2.45-.63-3.74-.26-.29,1.31.91,2.18.94,3.38a3.86,3.86,0,0,1-2,3.66,3.79,3.79,0,0,1-4.17-.11c-1.32-.88-1.32-2.22-1-3.59A57.57,57.57,0,0,1,303,403.88c2.14-3.55,4.17-7.1,8-9.19,1.77-.95,3.34-2.14,5.5-2.05,1.78.08,3-1.08,4-2.3,4.56-5.44,11.36-6.68,17.4-9.32,2.52-1.11,4.85,1,7.37,1.17,3.21.19,2.88,3.05,4,5.09a15.26,15.26,0,0,0,10.25,7.52c3.71.88,7.28,1.67,9.45,5.28,5.83-1.88,11.48,0,17.16.16,3.41.08,6.42-1,9.64-1.89,6.41-1.79,12.3-4.72,18.47-7,7.05-2.56,12.43-7,17.59-11.95,3.41-3.29,5.76-7.7,10.68-9.35,2.17-.72,4.12-.9,6.15.2,6.65,3.6,13.23,7.34,20.2,10.31a4.19,4.19,0,0,1,2.34,2.09,8.85,8.85,0,0,0,5.86,5.06,5.35,5.35,0,0,1,2.85,2.63c1.34,2,2.81,3.85,5.53,4.19,3.54.44,2.29,3.64,3,6,6.63,1.12,7.86,6.15,8.08,11.76,6.52,3.66,6.75,3.58,9.45,11.29,1.85,5.26,5,9.87,6.67,15.28,1,3.37,4.32,6.06,5.35,10s.45,6.78-2.55,9.3-6.81,3.29-10.29,4.59c-9.52,3.57-19.25,6.57-28.87,9.9a18.71,18.71,0,0,1-4.21.84c-2.29-.36-2.12-2.36-2.64-3.92-2.74-8.19-2.62-16.74-3.07-25.2-.27-5.05.08-10.12-.32-15.18-.37-4.6,1.65-8.87,2.28-13.34.24-1.68.81-3.37-.44-5.09-2.67,1-3.35,3.54-4,5.64-2.26,7.75-6.27,14.9-7,23.21-.39,4.24-2.6,8.34-3.92,12.52-1.69,5.38-2.41,10.91-3.68,16.35C448.22,473.32,446.66,478.07,441.8,480.64Z" transform="translate(-232 -134.75)"/><path class="cls-3" d="M305.49,221.26c-1.46-3-.93-6-.59-9.24.76-7.11,3.48-13.39,6.68-19.58a59.56,59.56,0,0,1,26.27-26.26,96.58,96.58,0,0,1,24.92-8.53,38.67,38.67,0,0,1,11-1.05c4.11.34,8.27,0,12.4.11,14.57.53,28,4.51,39.48,13.79a45.19,45.19,0,0,0,9.8,5.53c8,3.67,15.27,8.27,21,15.43,9.48,11.89,15.24,25.52,20.05,39.65,2.81,8.24,4.66,16.78,7.36,25.07,2.56,7.84,7,14.52,11.72,21.11,5.64,7.88,11.15,15.84,14.51,25a16.66,16.66,0,0,1,1.23,6.93c-.39,5.5.85,11.11-1.57,16.45a15.51,15.51,0,0,1-2,3.81,23.63,23.63,0,0,1-5.72,2.83c-4.28,1.5-7.34-.66-7.06-5.13a9.8,9.8,0,0,0-1.86-6.75,20.77,20.77,0,0,1-2.85-5.71c-2.27-6.91-6.84-12.65-9.63-19.27-4-9.62-7.56-19.4-8.79-29.84-.56-4.81-2.35-9.31-3.33-14a3.77,3.77,0,0,0-.75-1.84c-4.89-5.11-4.79-11.94-6.27-18.21a58.89,58.89,0,0,0-1.29-5.86c-1.27-3.58-4.48-4.67-7.15-2-3,3-7,3.05-10.49,4.5-2.44,1-4.55-1-6.06-3A27,27,0,0,0,425,216.85c-4.25-1.75-8.07-4.18-10.6-8.18a10.15,10.15,0,0,0-5.56-4.32c-3.18-3.11-3.67-7.27-4.38-11.33.21-1,1-1.7,1.36-2.61.17-.35.37-.68.57-1,1-2.55,2.19-5,2.58-8-2.48-.38-3.54,1.35-4.84,2.53-5.43,4.9-9.92,10.75-15.6,15.41-6.84,5.62-14.91,9.17-22.65,13.24-2.21,1.17-4.63,2-6.88,3.18a62.58,62.58,0,0,1-31.11,7,22.37,22.37,0,0,0-6.35.51c-6.3,1.68-10.71-.13-12.94-6.42C306.57,217.84,308.6,221.29,305.49,221.26Z" transform="translate(-232 -134.75)"/><path class="cls-4" d="M515.49,458.22c.08-.79-.13-1.76.58-2.26,2.61-1.83,1.78-4.09,1-6.42-.51-1.49-1-3-1.38-4.53-.22-.77-.18-1.75-1-2.12-3.81-1.77-4.27-5.1-4-8.63-3.9-3.26-4.29-8.17-6.35-12.23a1.69,1.69,0,0,1-.08-.39c-1.14-4.76-3.51-8.05-9.43-7.31a12.35,12.35,0,0,0-.47-8.27c-1.18-3.2-3-4.07-5.71-3.77-3.62-1.58,0-4.85-1.49-6.33-1.68-1.3-2.72.44-4.22-.4-.73-2.47-4.9-2.81-4.38-6.8-3.53.73-5.12-2-7.56-3.31l-.6-2.89c-1.1-1.29-2.55-1.4-3.76-1.69a11.37,11.37,0,0,1-3.57-1.54c-3.39-2.18-6.58-4.78-10.87-5.17-1.06-.1-1.65-1.29-2.45-2-2.7-2.31-3.69-2-7.15-.85-5.1,1.72-7.31,6.12-10.42,9.78a22.68,22.68,0,0,1-6.79,5.13,6.1,6.1,0,0,0-2.22,1.59c-1.85,2.51-4.48,3.58-7.42,4.06a15.84,15.84,0,0,0-5.73,2.4c-2.9,1.75-5.57,4.2-9.7,3.5-1.74-.29-4.66.11-5.35,2.44-8.22,2.74-16-.61-24.27.26-.31.24-.49,1.35-1.56,1.64-2.58-.19-1.16-2.94-2.47-4-3.22-1.39-6.46-2.83-10.07-2.24-2.25-3.52-6.28-4.5-9.06-7.67-.32-1.21,1.55-2.94-.4-4.78-2.2-.63-5-.25-7.51-1.83-1.48-.95-2.63,1.46-4.28,1.62-.7.06-1.32,1.12-2,1.16-6.67.36-10.35,5.35-14.7,9.32-.09.09-.21.16-.57.43-4.32-2.1-6.69,1.84-9.67,3.81a5.54,5.54,0,0,0-2.94,4.4c-.09,1.79-2.44,2.67-3.62,4.48l-.26,3.5c-.46,1.49-2,1.52-2.87,2.81.24,3.48-2,6.69-2.41,10.36,1.81,1.18,1.81,1.18,4.31,1a5.44,5.44,0,0,0,1.75-3c-.58-1.7-3.18-2.5-1.91-5,2.33-2.35,2.82,1.95,4.63,1.67,1.47-1.32-.58-2.48.11-4.07a11.86,11.86,0,0,0,5.63-4.81l4.28.53c.28,3.55,2.38,6.31,4.86,8.85a2.72,2.72,0,0,1,.28,3.94,11.48,11.48,0,0,0-1.76,3.34c.9,2.12,1.48,4.4-.5,6.51a2,2,0,0,0-.25,1.52c.68,4.42.4,8.87.27,13.28-.1,3-.47,6.1.64,8.87.83,2.08,1.79,4,1.5,6.08.59,1.48,2.09.67,2.81,1.53.4,1.65-2,.66-1.87,1.69-.36,2,1.28,2.41,2.1,3.23l.26,3.57c1.53,1.15,3.78,1,4.63,3.26-1.79,1.14-4.54,0-5.53,2.42-2.05.51-3.82-.3-5.57-1.19-3.63-4.93-4.33-10.51-4.49-16.53-.29-11.5-.35-23,1-34.4.19-1.58.39-3.19-.8-4.54a4,4,0,0,1-.48-1.74,10.71,10.71,0,0,0-.14-1.92,20.66,20.66,0,0,0-4.37,7.48c-4,10.14-7.41,20.46-11.25,30.64-1.52,4-2.1,8.58-2.7,13a69.38,69.38,0,0,1-15.19-7.16,41.58,41.58,0,0,1,3-20.7c2.91-7,5.31-14.2,9.27-20.79,2-3.26,2.2-7.4,4.32-10.95,4.87-8.15,9.95-15.92,17.9-21.52,3.22-2.27,7-3.29,10.36-5.08,5.6-2.94,10.74-7,17.3-8,5.28-.82,8.74.55,10.95,4.83.59,1.12,1.23,2.21,2.15,3.82-1-1.89-1.81-3.2-2.44-4.63-1.14-1.94-1.07-4.08-1-6.22.09-1.88.66-3.43,2.88-3.63,1.95-.17,3.35.5,4,2.5.73,2.27,1.42,4.6,3.56,6A8.3,8.3,0,0,1,364,380c.24.32.46.66.68,1s.46.66.67,1c3.55,3.09,7.88,4.38,12.38,4.81A60.8,60.8,0,0,0,415,378.35a6.2,6.2,0,0,1,1-.63c4.45-2.51,9-4.9,11.79-9.48a9.63,9.63,0,0,1,3.53-4.25,7.67,7.67,0,0,1,1.07-.42c2.23-.92,4-3.19,7-2.32,2.58,4-1.54,6.11-2.61,9,0,0,.06.31.06.31a1.71,1.71,0,0,0,.35-.13c4.91-4.53,14-4.38,19.22-.05a15.22,15.22,0,0,0,6.73,3.23c5.5,1.2,9.87,4.76,14.06,8.06,4.94,3.88,10.47,7.39,13.53,13.32.6,1.17,2,1.77,3.07,2.5,3.16,2.1,6.19,4.22,6.21,8.63a3.43,3.43,0,0,0,1.76,2.55c4.56,3.2,6.14,8.08,7.8,13.06,2,5.95,5.53,11.2,8.4,16.74,2.41,4.64,3,9.95,5.93,14.35a1.66,1.66,0,0,1-.4,2.18A17.86,17.86,0,0,1,515.49,458.22Z" transform="translate(-232 -134.75)"/><path class="cls-5" d="M303.89,254.05a.49.49,0,0,1,0-.71,1.3,1.3,0,0,0,.83-1.28c-.68-1.63.84-2.89.75-4.42a.5.5,0,0,0,.36-.71l.44-2.49a.51.51,0,0,0,.37-.72c.34-1.07-.19-2.26.43-3.29a1.27,1.27,0,0,0,.79-1.54,2.51,2.51,0,0,1,0-2.46.52.52,0,0,0,.35-.72c.47-1-.48-2.37.79-3.18,3.8-.3,5.82,2.33,6.19,5.25.8,6.27,2.71,12.44,2,18.89a10,10,0,0,1-1.81,5.55,4.74,4.74,0,0,1-1.37,1.45c-3.14,1.8-2.85,5-3.31,7.95-.52,3.27.91,6.48.31,9.77-.95,1.47-.57,3.07-.44,4.65a39.94,39.94,0,0,1-2.11,17.31c-3.53,9.49-6.93,19-10.05,28.69a14.16,14.16,0,0,1-3.27,5.44c-1.31,1.35-2.81,2.08-4.59.71-5.15-5.12-8.95-10.87-9.14-18.49-.05-2.09-.86-4.14-1.08-6.23-.29-2.77.78-5.42,1-8.15a.5.5,0,0,0,.37-.71l.42-1.59c2.32-1.3,3.47.24,4.35,2a11.8,11.8,0,0,1,1.23,6.94,8.55,8.55,0,0,0,2.54,7.55c2.23-5.07,7.36-7.15,8.33-13,.75-4.47,2.86-8.76,3.08-13.46a9.65,9.65,0,0,0-.71-4.21c-1.14-2.94-2.32-5.51-6-5.87a3,3,0,0,1-2.37-2.45,13.5,13.5,0,0,1,2.39-4.72,16.35,16.35,0,0,0,1.16-2.38l6.42-15.22A4,4,0,0,0,303.89,254.05Z" transform="translate(-232 -134.75)"/><path class="cls-6" d="M409,203.65a6.15,6.15,0,0,1,5.72,3.57c2.34,4.37,6.25,6.69,10.54,8.57,4.72,2.06,9.15,4.4,12,9,1.76,2.87,4.34,3.29,7.35,1.43,1.82-1.14,3.85-.79,6-1.22,1.54-4.1,4.81-4.31,8.66-3.47,2.71,2.93,2.77,6.92,3.36,10.61.68,4.29,2.16,8.39,2.72,12.69a2.46,2.46,0,0,0,1,1.68c3,1.65,3.17,4.54,3.73,7.44.61,3.22,2.05,6.2,2.43,9.57a75.53,75.53,0,0,0,3.85,17.31c2.76,7.61,4.66,15.64,9.67,22.27,2.94,3.89,3.53,8.82,5.95,13,.77,1.31,1.34,2.87,2.24,4.13,1.62,2.25,2.89,4.36,1.56,7.31-.66,1.46.57,2.73,1.51,3.94a6.33,6.33,0,0,0,6.35-1.05c1.29-1.1,2.65-1,4.12-.95-2.36,6.25-7.52,9.32-13.49,10.64-2.94.65-5.85,2.56-9.11,1.48a1.64,1.64,0,0,1-.21-1.86c4.11-8.32,2.32-16.4-.43-24.7-2-6.1-6.4-11.09-7.69-17.45-1.91-5.35-3.49-10.8-5.62-16.08-2.06-5.09-1.16-10.76-2.49-16-.62-2.43.12-5.48-2.82-7a7.13,7.13,0,0,1-1.76-.58,2.33,2.33,0,0,1-1.22-2,4.11,4.11,0,0,0-1.25-3.62c-3.53-4.14-4.44-9-3.95-14.23.15-1.51.82-3.2-.82-4.67-2.38.5-4.55,1.82-6.88,2.7a17.15,17.15,0,0,1-2.58,1.08c-3,.64-18.37-5.5-20.07-8.14-2.3-3.58-5.1-6.46-9.45-7.39-2.19-.39-2.94-2.12-3.62-3.91a4.4,4.4,0,0,0-1.41-3.32,5.32,5.32,0,0,1-.59-.94c-.8-2.12-1.91-4.11-2.84-6.17C408.89,206.17,407.9,205,409,203.65Z" transform="translate(-232 -134.75)"/><path class="cls-7" d="M523.5,455c0-.27.12-.59,0-.79-4.52-8.74-7-18.41-12.51-26.7a22.82,22.82,0,0,1-2.84-6.91c-1.12-4.25-2.76-8.58-6.94-11-1.84-1.06-2.82-2.4-2.49-4.5a4.31,4.31,0,0,0-2.44-4.64c-2.35-1.25-4-3.41-6.75-4.31-.5-4.65-4.72-6.37-7.49-9.19-1.32-1.35-3.09-2.44-4.52-3.82-1.22-1.2-2.31-2.5-4.22-2.81a5.43,5.43,0,0,1-2.95-1.95,13.46,13.46,0,0,0-8.07-3.95,10.78,10.78,0,0,1-5.93-2.81c-4.23-3.87-11.68-4.7-16.72-2.12-1.26.64-1.5,2.68-3.39,2.38a.93.93,0,0,1-.81-.81c.8-1.77,1.26-3.69,2.94-5,1.45-1.13,1.3-2.72.66-4.4-1.74.34-3.41.58-4.61,2a2.35,2.35,0,0,1-2.46.88c-.63-1.52.58-2.43,1.15-3.56.63-.93.6-2.21,1.58-2.95a10.66,10.66,0,0,1,4.13.26c2.52,1.24,5.63,1.08,7.77,3.24,1.9,2.61,5.06,3,7.72,4.08,11.71,5,23.63,9.44,34.25,16.65A56.9,56.9,0,0,1,499.76,393c6.65,7.86,11.66,16.84,15.94,26.18,4.66,10.14,9.8,20.07,13.72,30.54a4,4,0,0,1,.07,2.88C527.84,454,525.62,454.41,523.5,455Z" transform="translate(-232 -134.75)"/><path class="cls-8" d="M446.6,361.54a29.5,29.5,0,0,1-7.91-2.49,17.77,17.77,0,0,0-4-1.15,2.7,2.7,0,0,1-1.06,0c-.52-.14-1-.32-1.54-.51-2.32-1-3.81-3-5.52-4.7-2.28-3-3.07-6.61-4-10.16-.48-3-.18-6-.77-9,.57-3.86-.8-7.7-.12-11.57a8.18,8.18,0,0,1,2.55-4,67,67,0,0,0,15.31-25,4.7,4.7,0,0,1,1.48-2.33,6.11,6.11,0,0,1,3-.64c7.36.8,12.41-2.95,16.64-8.38,1-1.33,1.55-3.18,3.43-3.76,1,0,1.38.64,1.45,1.55-.15,1.39-1,2.54-1.42,3.83a18.53,18.53,0,0,0-.76,2.86,12.11,12.11,0,0,1-5.33,7.23c-3.78,2.61-4.27,5.94-3.42,10.11,1.15,5.62,3.67,10.81,4.66,16.47,1.48,8.53,1.64,16.87-1.66,25.09-1.13,2.82-1.39,5.93-1.95,8.94-.48,2.64-1.24,5.17-3.44,7C450.51,362.39,448.47,361.26,446.6,361.54Z" transform="translate(-232 -134.75)"/><path class="cls-8" d="M352.26,363.78c-2.29-1.24-4.79-.94-7.24-1.08-1.35-.08-2.88.76-4-.63-2.32-1.27-2.71-3.44-2.71-5.81,0-13.13-5-24.89-10.15-36.61-.48-1.09-1.33-2.11-1.42-3.28-.29-4.17-2.51-7.5-4.53-10.92-.93-1.94-1.57-4.11-3.82-5.07-1.09-.1-1.43.95-2.16,1.41s-1.75,1-2.76.33a3.57,3.57,0,0,1-.61-2.35,4.58,4.58,0,0,1,.48-1.77c2.46-2.36.84-6.22,3.15-8.64,1.81-.71,3.19.64,4.77,1a1.81,1.81,0,0,1,.71.69c.2.34-.34.53-.2.86.35.22.76.17,1.12.33a3.89,3.89,0,0,1,1.69,1.25,4.84,4.84,0,0,1,.46,1c3.28,13.37,9.86,24.69,20.64,33.42,1,.84,2.13,1.67,2.1,3.21-.61,2.22-3,1.91-4.36,3.09-1.79,6.39,1.18,15.07,6.45,18.79,1.55,1.09,3.2,1.47,4.69-.09,3.16-3.29,3.82-8.59,2-12.83-.93-2.2-2.64-3.14-4.46-4.29-1.49-.94-4.12-1.28-3.2-4.17a3.37,3.37,0,0,1,3.4.34,113.22,113.22,0,0,0,16.94,6.7,3.44,3.44,0,0,1,1.24,1.58c.74,3,.27,6,.42,9-.1,2,.2,4-.45,5.9-2.32,2.43-5.64,3.57-7.95,6.05a6.42,6.42,0,0,1-1,.62c-.18.09-.37.16-.55.24a6.08,6.08,0,0,1-1.13.31C357.14,362,355.14,365.24,352.26,363.78Z" transform="translate(-232 -134.75)"/><path class="cls-6" d="M313.69,299.79v2.4a.82.82,0,0,1,.21.64c0,.23-.08.34-.13.34a6.65,6.65,0,0,0-2.81,3.69c-.05.37-.25.75.14,1.07.11,0,.27,0,.34-.08,5.22-5.64,11.27-4.85,13.2,2.69,3.32,13,9.82,25,11.14,38.51a62.39,62.39,0,0,1,.38,12.23c-6.73-1.29-13.05-3.46-18.06-8.44a2.17,2.17,0,0,1,2.14-1.49c1.67-.11,3.79.64,4.57-1.46.92-2.44,2.08-5,1.3-7.72a32.33,32.33,0,0,0-2-5.64,59.76,59.76,0,0,1-5.22-15.84c-.37-1.95-.86-4.28-3.45-4.19-2.33.08-3.1,2.14-3.81,4.1-.86,2.38-.4,5.88-4.5,5.75-1.43-3.64.34-7.11.46-10.75-2.41,5.12-3.31,10.58-4,16-.51,3.82-1,7.61-3.49,10.75a14.22,14.22,0,0,1-9.44-4.21c3.2-.18,6-2.59,6.94-6.42,1.39-6,4-11.48,5.92-17.24s4.2-11.43,5.75-17.29a27.4,27.4,0,0,0,0-12.64c-.34-1.59-.21-2.57,1.27-3.24,2.08,0,2.13,1.6,2.27,3a8.9,8.9,0,0,0,1,3.75,13.5,13.5,0,0,1,.63,8.51C314.23,297.66,312.07,298.3,313.69,299.79Z" transform="translate(-232 -134.75)"/><path class="cls-9" d="M441.8,480.64c.54-2.38,2.83-3.48,4-5.55,2.73-4.82,3-10,3.94-15.16.75-4,2.58-7.72,3.26-11.75.77-4.6,4.05-8.51,3.37-13.61-.37-2.75,1.74-5.22,2.69-7.77,1.79-4.79,3.13-9.77,5.35-14.42,1-2.1,2.3-3.47,5-3.54.86,2.2.51,4.41.28,6.6-.44,4.05-2.19,7.8-2.48,11.94-.18,2.53.38,4.92.36,7.41,0,5.56-.75,11.17.69,16.68a2.56,2.56,0,0,1,0,1.2c-1.28,5.39,1,10.31,2.08,15.37.4,1.86-.09,4.09,1.77,5.51-1.87,1.35-4.11,1.44-6.25,1.87-1.67-2-1.31-4.55-1.7-6.86A255.78,255.78,0,0,1,461,440.41c-.38-6.59,1.91-12.81,3.23-19.15.29-1.41,1-2.7,1.35-4.83-.05.18-.89.56-.35.54.2,0,.28.11.2.34-5.93,17.2-5.89,35-5.6,52.87,0,2.32.65,4.83-1.11,6.9A69.09,69.09,0,0,1,441.8,480.64Z" transform="translate(-232 -134.75)"/><path class="cls-10" d="M352.26,363.78c2.82-.44,5.07-2.83,8.14-2.46A3.66,3.66,0,0,1,360,364a21.56,21.56,0,0,0-.85,3.05,9.2,9.2,0,0,0,.82,6.57c.29,1.58,2,2.81,1.15,4.66-2.92.12-3.07-2.59-4.09-4.24a6.68,6.68,0,0,1-1.05-4c-1.53-.77-2.82-.41-4.3-.33a18.21,18.21,0,0,0,.44,9.45.94.94,0,0,1-.81.81c-1.32-.83-1.25-2.62-2.58-3.65-6.35-1.9-12-.31-17.73,3.18-4.43,2.69-8.88,5.73-14.12,6.94-2.63.6-4.06,2.91-6.13,4.32-3.82,2.59-7.2,5.74-8.85,10.3a3,3,0,0,1-1.73,2.07c-1.31.45-1.76,1.63-2.28,2.66-1.42,2.78-2.28,5.87-4.7,8.08a1.41,1.41,0,0,0-.3,1.12c.73,3.67-1.43,6.24-3.2,9.05-2.61,4.14-3.47,9.09-5.71,13.41-3.5,6.75-4.39,14-4.72,21.46a7,7,0,0,1-.76,2.64c-3.89-1.7-5.38-5-4.39-9.29a58.12,58.12,0,0,1,4-11.05c4.95-10.75,9-21.91,14.47-32.43a120.55,120.55,0,0,1,11.64-17.8,30.39,30.39,0,0,1,10.62-8.12c6-3,11.77-6.27,17.75-9.22,4.95-2.45,10-4.75,15.11-6.78A13,13,0,0,0,352.26,363.78Z" transform="translate(-232 -134.75)"/><path class="cls-6" d="M305.49,221.26c1-.27,1.08-1.06,1-1.89-.19-1.8.54-3.36,1.23-5,1.51-.08,1.53,1.25,1.89,2.11,2.55,6,4,6.55,10.56,5.8,3.29-.39,6.68-1.22,10.13-.3,2.48.66,4.9-.78,7.46-.82,6.86-.09,13.07-2.8,19.23-5.53a272.08,272.08,0,0,0,27.44-14.24,28.88,28.88,0,0,0,7.51-6.27c4.12-4.93,8.94-9.13,13.35-13.75a4.89,4.89,0,0,1,4.61-1.66,2,2,0,0,1,.5,2.61c-1,2.29-2.36,4.44-2.44,7.08,0,.57-.83.52-1.34.61-1.37-.18-1.15-1.94-2.3-2.37-1.05.65-1.44,1.84-2.26,2.65a13.11,13.11,0,0,1-3.45,3.11c-2.94,1.49-4.16,4.13-4.88,7.13a4.08,4.08,0,0,1-3.11,2.83,1.27,1.27,0,0,0-1.4,1.16,5.78,5.78,0,0,1-4.27,3.27c-5.16,3.07-11.24,4.44-15.78,8.63a13.68,13.68,0,0,1-5.23,2.76c-4.84,1.56-8.71,4.83-13,7.28a2.79,2.79,0,0,1-2.33.66c-4.89-1-9.24,1.7-14,2-6.87.4-13.74.86-20.62,1.17-2.49.11-5.05-.34-6.82-2.55l-.48-1.71a2.64,2.64,0,0,0-.35-.74l-.45-1.66a2.51,2.51,0,0,0-.35-.74A1.49,1.49,0,0,1,305.49,221.26Z" transform="translate(-232 -134.75)"/><path class="cls-11" d="M292.67,280.49c2.05.88,3.52,3.62,6,1.71,1.3,1,2.23,1.76,2.19,3.15,0,.53-.17,1.26.11,1.56,4.41,4.82,1.18,10.08.39,14.89-.45,2.73-2.06,5.52-2.59,8.48a2.9,2.9,0,0,1-.69,1.43c-2.64,2.77-5.72,5.17-6.74,8.93a6.43,6.43,0,0,1-3.92-2c.15-2.79-1.6-5.49-.43-8.74.53-1.48-.8-3.78-1.65-5.53a3.05,3.05,0,0,0-3.12-1.35c0-3.68,2.28-6.54,3.52-9.75A73,73,0,0,1,292.67,280.49Z" transform="translate(-232 -134.75)"/><path class="cls-5" d="M307.3,326.23c2.64-.83,2.81-3.16,3.19-5.33.72-4.23,2.84-6,7.07-5.59a20,20,0,0,1,2.72,6.71c.94,3.6,1.41,7.35,3.36,10.77s2.93,7.29,4.43,11.22c-2.1,2.22-.88,5.83-3,8-2.35,1.8-4.9-1-7,.85-2.36-1.54-3.75-3.86-5-6.27a7.8,7.8,0,0,0-2.59-3.36C306.6,338.08,306.33,332.27,307.3,326.23Z" transform="translate(-232 -134.75)"/><path class="cls-6" d="M481,342.05c-2,3.38-3.75,6.87-6.79,9.54a31.52,31.52,0,0,1-14,7.29c-2.42-1.66-2.75-4.14-2.45-6.73a39.47,39.47,0,0,1,1.75-8.59c2.22-6.28,2.18-12.79,2-19.32a18.34,18.34,0,0,0-2.22-7.18c-5.3-11.22-2.1-21.2,4.47-30.68a3.12,3.12,0,0,1,3.4-1.55c1.78.44,3.28,1.23,3.07,3.47-8.09,4.76-8.69,12.69-7.58,20.51,1.2,8.42,2.61,16.83,4,25.25.57,3.57-.86,7.2.56,10.7.24.59.15,1.33.86,1.76,1.74-.3,2.57-1.71,3.42-3a15.74,15.74,0,0,1,3.33-4,16.83,16.83,0,0,0,6-9.21c.45-1.71.8-4.26,3.83-3.28C486.13,332.66,484,337.46,481,342.05Z" transform="translate(-232 -134.75)"/><path class="cls-12" d="M469.88,288.57c-.16-2.48-2.15-2.64-4.05-3.34-5,7.26-9.24,14.61-7.94,23.81a25.19,25.19,0,0,0,2.72,8.22,20.2,20.2,0,0,1,2.13,9.15A59.09,59.09,0,0,1,460,346.29c-1.28,4.07-2.15,8.44.27,12.59a25.18,25.18,0,0,1-8,2c3.11-6.62,3.32-14,5.8-20.87,2.25-6.22,1.32-12.85.3-19.35-.95-6-3.81-11.5-4.86-17.51-.74-4.22-.76-7.71,3.55-10.33a11.88,11.88,0,0,0,5.65-7.43,3.39,3.39,0,0,0,.81-2.4,4.08,4.08,0,0,1,1.6-3.2c.83-.88,2.14-1.06,3-2.13.55-2.29-.05-4.62-.8-6.85-1.3-3.92-.58-8.15-2-12-.18-.49.25-1,.59-1.42,2.13-.06,2.83,1.7,3,3.12.56,4.28,1.73,8.45,1.87,12.82.12,3.57.06,7.39,2.95,10.25.25,5,3.13,9.14,4.18,13.87a2.51,2.51,0,0,1-2.33.64c-2.61-1.37-3.31-3.9-4-6.47-.56-.57,1.26-1.54-.34-1.94A1.44,1.44,0,0,1,469.88,288.57Z" transform="translate(-232 -134.75)"/><path class="cls-12" d="M336.17,361.28c.31-2.22-.82-3.8-2.59-5.07a10.67,10.67,0,0,0,1.16-7.73,146.55,146.55,0,0,0-8.67-28.62,17,17,0,0,1-1.22-5.34,11.37,11.37,0,0,0-4.25-8.23c-3-2.47-5.15-2.26-7.33.86a25.26,25.26,0,0,0-1.46,2.65,2.57,2.57,0,0,1-2.74-.05,3.58,3.58,0,0,1,1.42-3.56c1.1-1,2.06-2.21,3.21-3.21v-.79c.79-.29,1.46-.93,2.4-.8,3.66-2,4.49,1.7,6.41,3.2,2.29,3.33,5.24,6.34,4.89,10.89a3.66,3.66,0,0,0,.85,2.19c3.31,4.34,4.32,9.62,6.05,14.59,1.82,5.22,3.81,10.38,4.56,16a40.72,40.72,0,0,1,.43,5.91c0,2.81,0,5.54,1.69,7.94A6.59,6.59,0,0,1,336.17,361.28Z" transform="translate(-232 -134.75)"/><path class="cls-12" d="M307.13,227.73c4.58,1.52,9.17,2.28,14,.89,1.48-.43,3.17-.14,4.77-.13,3.58,0,7.16.16,10.62-1,.49-.16,1.16-.54,1.48-.36,2.65,1.49,4.15-.81,6.25-1.82,1.21.16,2.54.87,4,.21.39-.17.64.7.68,1.24-1.34,2.85-4.39,2.51-6.7,3.56a41,41,0,0,1-4.94,1.38,20,20,0,0,0-4.59,1.49c-1.83.38-3.66.78-5.49,1.12a17.12,17.12,0,0,0-6.74,1.32c-1.35,1.48-.75,3.31-.84,5-.35,6.77.67,13.58-.61,20.33a3.66,3.66,0,0,1-4.44,1.43c2.5-5.78,2-11.66.43-17.53a7.07,7.07,0,0,1-.49-3.08c.92-4.73-1.72-7.29-5.47-9.22C309.53,230.48,307,229.64,307.13,227.73Z" transform="translate(-232 -134.75)"/><path class="cls-13" d="M458.68,477.08c0-10.66-.27-21.33.09-32,.21-6.42,1.89-12.73,3.25-19a85.29,85.29,0,0,1,3.07-9.78c.33-1,.54-2,1.65-2.54.2.22.53.47.49.56-2.71,5.95-3.13,12.47-4.61,18.72-.75,3.16-1.19,6.2-.09,9.36a9.88,9.88,0,0,1,.14,3.18c-.05,5.7.89,11.31,1.75,16.91.66,4.3,1.52,8.56,1.45,12.94C463.49,476.05,461.2,477.08,458.68,477.08Z" transform="translate(-232 -134.75)"/><path class="cls-9" d="M293.71,468.64c-.7-3.41-1.14-6.77,1.44-9.27.23-1.49-.95-2.3-.51-3.6,2.11-2.56,3.09-5.71,4-9.07a126.14,126.14,0,0,1,6-16.32c1.35-3.14,2-6.5,3.69-9.53a19.54,19.54,0,0,1,4.73-5.53c1.19,1.47.37,2.63-.17,3.81-6,15.14-9.67,30.89-12.47,46.87-.3,1.71-.06,3.9-2.58,4.35A10.93,10.93,0,0,1,293.71,468.64Z" transform="translate(-232 -134.75)"/><path class="cls-13" d="M297.85,470.35a3.3,3.3,0,0,0,1.32-2.37c.86-7.71,2.76-15.25,4.32-22.81,1.13-5.44,1.66-11.21,5.16-16,1.7-2.36,1.9-5.45,2.58-8.25.26-1.05.5-1.75,1.67-1.76v1.62c1.25,2.73-.57,5.12-.85,7.68a10.9,10.9,0,0,0-.52,2.41,14.57,14.57,0,0,1-.47,2.54c-2.1,8-2.73,16.26-3.38,24.47-.34,4.33-1.5,8.71.37,13a2.35,2.35,0,0,1-.74,2.56A33.69,33.69,0,0,1,297.85,470.35Z" transform="translate(-232 -134.75)"/><path class="cls-9" d="M307.32,473.43c-.14-1.54.16-3.07-1-4.52-1.32-1.68-.78-3.86-.49-5.76.75-4.79,1.08-9.62,1.44-14.44A142.65,142.65,0,0,1,309.67,434a1.61,1.61,0,0,1,.83-1.25c3.08,1.37,2.14,4.26,2.09,6.48-.13,5.92-.41,11.81-.23,17.74a137.52,137.52,0,0,1-.23,18A7.8,7.8,0,0,1,307.32,473.43Z" transform="translate(-232 -134.75)"/><path class="cls-14" d="M307.3,326.23c.85,5.7.94,11.54,3.19,17a19.36,19.36,0,0,1-10.42-.81c-.35-2,1.18-3.46,1.56-5.24,1-4.61,1.4-9.31,2.31-13.94.68-3.45,2.31-6.42,3.34-9.66.3-.95,1.09-1,2.46-.57C308.08,317.26,307.84,321.77,307.3,326.23Z" transform="translate(-232 -134.75)"/><path class="cls-14" d="M475.48,297.38h2.41c.2,3.49,2.31,6.17,3.9,9,4.81,8.66,7.33,17.8,6.53,27.77-.23,2.88-2.19,4.93-3.21,7.42-1.31.6-2.73.08-4.07.44.09-3.44,2.45-6.19,2.76-9.66.15-1.77.39-3.57.49-5.37a4.92,4.92,0,0,1-1.8-3.86c-.21-7.81-3.2-14.8-6.42-21.72C475.48,300.16,474.39,298.92,475.48,297.38Z" transform="translate(-232 -134.75)"/><path class="cls-7" d="M312.13,475q-.7-4.06-1.39-8.13a2.78,2.78,0,0,1-.14-1.16c2.07-7,.1-14.13.65-21.19.26-3.35.91-6.73.07-10.11-.16-.65-.14-1.31-.82-1.67v-2.4a2.09,2.09,0,0,0,.79-1.6c-.14-2.81,1.11-5.34,1.61-8A2.15,2.15,0,0,1,315,423.5c-1.52,5.54-.77,11.31-1.91,16.87-.08.38-.24.87-.08,1.16,1.61,3,.73,6.36.24,9.26-.61,3.56.73,6.76.5,10.17a23,23,0,0,0,.52,7.9c.63,2.28,1.23,4.28,3.15,5.25.49,1.23-.24,1.83-.47,2.56A8.79,8.79,0,0,1,312.13,475Z" transform="translate(-232 -134.75)"/><path class="cls-11" d="M303.89,254.05c1.56.82.89,2.19.87,3.34-.54.89-1.38.68-2.12.78.36-.73-.31-1.78.71-2.31l.27.19-.2-.26Z" transform="translate(-232 -134.75)"/><path class="cls-11" d="M296.22,273.39c.54,1.25-.12,1.91-1.16,2.38A3.68,3.68,0,0,1,296.22,273.39Z" transform="translate(-232 -134.75)"/><path class="cls-11" d="M307.88,238.89c.49.14.94.41.76,1-.24.77-1,.54-1.55.57Z" transform="translate(-232 -134.75)"/><path class="cls-12" d="M305.5,222.88c.34.14,1.12.08.35.74C305.51,223.48,305.1,223.37,305.5,222.88Z" transform="translate(-232 -134.75)"/><path class="cls-12" d="M306.3,225.28c.34.15,1.12.09.35.74a3.91,3.91,0,0,1-.54-.45S306.24,225.38,306.3,225.28Z" transform="translate(-232 -134.75)"/><path class="cls-11" d="M305.85,246.93c.71.66.12.66-.36.71Z" transform="translate(-232 -134.75)"/><path class="cls-11" d="M308.26,235.71c.7.64.14.66-.35.72Z" transform="translate(-232 -134.75)"/><path class="cls-11" d="M306.66,243.72c.7.66.12.67-.37.72Z" transform="translate(-232 -134.75)"/><path class="cls-11" d="M281.82,304.61c.72.67.12.66-.37.71Z" transform="translate(-232 -134.75)"/><path class="cls-11" d="M304.74,252.06a1.1,1.1,0,0,1-.83,1.28C303.81,252.67,304.21,252.33,304.74,252.06Z" transform="translate(-232 -134.75)"/><path class="cls-4" d="M311,407c-.07.18-.11.5-.26.58a.54.54,0,0,1-.83-.36.7.7,0,0,1,.26-.61C310.55,406.44,310.88,406.56,311,407Z" transform="translate(-232 -134.75)"/><path class="cls-14" d="M401.8,190c.22-2.12,2-3.14,2.93-5.3,1.6,2,.6,4,1.88,5.3v.8c-.55.52-1.07,1.07-1.59,1.62,1.22,3.77,1.75,7.79,4,11.2.42,2.39,1.9,4.32,2.85,6.48.58,1.31,1.54,2.52.92,4.1-1.95-.15-2.39-1.84-3.14-3.16a131.81,131.81,0,0,1-5.71-12.52c-.45-1,0-2.05-.34-3.05s-.68-2.17-1-3.26a9.86,9.86,0,0,0-.68-1.76C401.88,190.33,401.84,190.18,401.8,190Z" transform="translate(-232 -134.75)"/><path class="cls-6" d="M405,192.45c-.07-1.13.47-1.66,1.59-1.62A1.37,1.37,0,0,1,405,192.45Z" transform="translate(-232 -134.75)"/><path class="cls-15" d="M361.14,378.23c-.53-1.65-2.08-2.84-2.16-4.7,3.68-.42,6.49,1.87,9.58,3.2s5.22.57,5.89-2.45c1.74-7.73,7.82-10.5,14.26-12.31a38,38,0,0,0,11.34-5.51c1.48-1,3.09-1.93,4.82-1.35,5.55,1.89,11.68,1.09,17,3.74,3.32,1.66,7.11,2.57,9.53,5.72l-3.34,4c-3.23,4.15-7.68,6.75-12,9.56l0,0A62.12,62.12,0,0,1,377.54,387c-4.87-.48-9.71-1.76-13.3-5.62v.06a2.14,2.14,0,0,1-.84-.9Z" transform="translate(-232 -134.75)"/><path class="cls-16" d="M431.4,364.57c-5-2.23-9.72-5.05-15-6.59-.62-.19-1.37-.63-1.88-.45-2.87,1.08-5.46-.16-8-1-2.38-.82-4-.39-6.17,1-3.25,2-5.9,5-10.48,5.13-3,.07-6.09,2.3-9,3.69a9.2,9.2,0,0,0-4.58,6.22c-.66,2.55-1.48,5.12-4.35,6.76L359,373.53c-1.48-2.07-1.43-4.3-.7-6.61,1.9-.46,1.88,1.43,2.68,2.26,3.1,3.19,7,3.18,9-.13a3.82,3.82,0,0,1,.67-1,37.24,37.24,0,0,0,6.09-6.33,12.33,12.33,0,0,1,9.93-5.21,9.53,9.53,0,0,0,6.91-2.63c3.53-3.64,8.35-3.85,12.8-5,1.5-.4,2.89.33,4.19,1,2.94,1.59,6,2.88,8.92,4.52a15.21,15.21,0,0,0,8,2.13,5.15,5.15,0,0,1,1.08.26c.94.42,1.64,1.25,2.61,1.64.3.15.58.31.87.48.66.5,1.67.35,2.16,1.16a2,2,0,0,1-.27,1.49l-1.92,3-.29,0Z" transform="translate(-232 -134.75)"/><path class="cls-13" d="M358.55,388.7c5,1.94,9.68,4.8,15.1,5.71a53.27,53.27,0,0,0,14,1,96.91,96.91,0,0,0,19.26-4.25c3.82-1.16,7-3.84,10.87-4.82l0,0a1.93,1.93,0,0,1-1.25,1.8,67.89,67.89,0,0,1-39.65,8.55c-5.7-.48-10.83-3.16-16.18-4.94a3,3,0,0,1-2.21-3Z" transform="translate(-232 -134.75)"/><path class="cls-9" d="M364.24,381.39c13.56,8,27.35,6,41.28,1.11,3.62-1.26,6.77-3.63,10.59-4.34-.16,1.51-1.52,1.71-2.52,2.25-6.79,3.63-14,6.54-21.58,7.24-8.61.79-17.55,1.51-25.56-3.39C365.3,383.56,364,383.13,364.24,381.39Z" transform="translate(-232 -134.75)"/><path class="cls-9" d="M416.09,378.14c.31-1.55,1.86-1.78,2.84-2.57,3-2.4,6.08-4.67,9.13-7l.54.46C425.29,373.26,421.32,376.57,416.09,378.14Z" transform="translate(-232 -134.75)"/><path class="cls-13" d="M417.81,386.3a29,29,0,0,1,8-5.6h0c-1.35,3.74-4.45,5-8,5.62Z" transform="translate(-232 -134.75)"/><path class="cls-13" d="M351.33,379.9a1.08,1.08,0,0,1,.81-.81,12.21,12.21,0,0,1,2.8,6.11A10.07,10.07,0,0,1,351.33,379.9Z" transform="translate(-232 -134.75)"/><path class="cls-13" d="M429.83,378.29c.18-2.29,2.2-3.08,3.86-5.05,0,3.32-1.55,4.5-3.85,5.06Z" transform="translate(-232 -134.75)"/><path class="cls-13" d="M425.83,380.7c.83-1.65,2.05-2.64,4-2.41h0c-.83,1.65-2,2.64-4,2.4Z" transform="translate(-232 -134.75)"/><path class="cls-13" d="M358.54,388.71c-1.3,0-2.75.15-2.18-2a3,3,0,0,1,2.19,2Z" transform="translate(-232 -134.75)"/><path class="cls-13" d="M435.44,371.08a1.08,1.08,0,0,1,.81.81c-.34.61-.83,1-1.35.3C434.57,371.74,435,371.31,435.44,371.08Z" transform="translate(-232 -134.75)"/><path class="cls-9" d="M363.4,380.55a1.25,1.25,0,0,1,.84.9A.94.94,0,0,1,363.4,380.55Z" transform="translate(-232 -134.75)"/><path class="cls-17" d="M314.58,262.36a6.45,6.45,0,0,1,3.81-.92l.51.42a3.78,3.78,0,0,1,.5,1.21c0,4.56,1.24,9-.33,13.75-1.29,3.9,0,8.15,2.77,11.58.54,1.11.87,2.19-.46,3-2.19.8-3-1.37-4.46-2.1a3.69,3.69,0,0,1-2.51-1.89c-3.14-6.54-5.33-13.22-3.05-20.57A6,6,0,0,1,314,263Z" transform="translate(-232 -134.75)"/><path class="cls-12" d="M314,263c-3.88,6.7-3.2,13.5-.4,20.32.6,1.48,1.37,2.88,2.06,4.32a1.91,1.91,0,0,1-2.72.11c-1-.5-1.89-1.07-1.21-2.36.93-1.77-.16-2.89-1.19-4.05-.14-3.27-1.09-6.45-.86-9.78a30.74,30.74,0,0,1,1.26-6.13C311.28,264.06,312,262.69,314,263Z" transform="translate(-232 -134.75)"/><path class="cls-17" d="M404.71,197.8c1.88,4.26,3.34,8.72,5.72,12.76.73,1.25,1.18,2.69,2.35,3.67l.05,0a4,4,0,0,1,1.83,3.05,13.13,13.13,0,0,0,3,4.31c5.18,4.14,9.62,9.05,14.17,13.84a3.82,3.82,0,0,0,1.38,3.2,21.5,21.5,0,0,0,1.69,2.43,12.89,12.89,0,0,0,2,2.18,6.43,6.43,0,0,1,1,1.2c.82,1.19,1.92,2.17,2.66,3.48,1,0,1.23-1.79,2.52-1.24,1.72,1.54,1.17,3.66,1.34,5.55.27,3,.36,6,1.63,8.81,1.23.86,3-.1,4.08,1.2a3.18,3.18,0,0,1-.79,3.3,9.87,9.87,0,0,0-5.55,8.24c-.51,4.29-2.52,7.94-4.81,11.25-5,7.21-9.52,14.72-14.83,21.75C421,311,417.93,314.9,413.69,318c-1.2.87-1.67,2.38-2.64,3.48a3.35,3.35,0,0,1-.95.63c-2.78.54-4,3.14-6,4.66-1.46.65-2.91,1.44-4.53.43-1-2.1.79-3.18,1.81-4.45,3.24-4.06,7.81-6.79,10.88-11.08,3.78-5.28,8.4-9.93,11.53-15.72,2.47-4.57,6.15-8.34,8.7-12.92,3.59-6.45,6.46-12.58,5.75-20.63-.58-6.62-1-12.58-6-17.31-2-2.62-3.38-5.77-6.49-7.4a4.39,4.39,0,0,1-.61-.93c-1.74-4.16-5-7-8.48-9.6A128.09,128.09,0,0,1,405.75,211c-.88-1.49-1.65-3-2.58-4.5-1.48-2.32-3.36-2.79-5.76-1.34-3.3,2-6.35,4.35-9.52,6.53-6.93,4.77-14.63,8-21.92,12-6.07,3.33-12.35,6-18.58,8.8-3.41.47-6.81.86-10.16-.34a.86.86,0,0,1-.3-1.2c4-1.44,8.19-2.24,12-4.18a2.29,2.29,0,0,0,1.61-.66c2.67-2,5.84-3.13,8.82-4.47a135,135,0,0,0,22.16-12.52,4.84,4.84,0,0,1,1.83-.76c4.11-.23,6.47-3.45,9.4-5.61,2.26-1.66,4.35-3.54,6.93-4.69A6,6,0,0,1,404.71,197.8Z" transform="translate(-232 -134.75)"/><path class="cls-14" d="M431.45,235.67c-4.92-4.38-10.12-8.49-13.77-14.11.19-.6,0-1.38.87-1.62,4.87,2.68,9.15,6,11.13,11.56,5-.05,9,2.42,13.25,4,2.42.92,4.32,1.31,6.63-.4,2.05-1.51,5.09-1.29,6.79-3.62,2.34,1,3,2.26,2.58,4.7-1.06,6-.38,11.65,4.12,16.28,1.12,1.15,2,2.31,0,3.48a2.23,2.23,0,0,1-1.08-.22c-1.68-1.07-3.59-1.82-5-3.35a2,2,0,0,1-.46-.87,1.71,1.71,0,0,1-.68.68,4.09,4.09,0,0,1-2.47.14,2.19,2.19,0,0,0-2.55.58,8.23,8.23,0,0,1-.8.66c-1.15.69-1.72,2.08-3.41,2.56-3.77-1-2.48-4.53-2.35-6.86a33.51,33.51,0,0,0-.58-8.17c5.14-1,7.46,2.48,10.59,6.3-1.28-3.44.91-5.67.29-9.06-4.24,3.68-9.1,1.35-13.52,2.56a2.06,2.06,0,0,1-2-.67c-1.32-2.3-3.45-3.1-6-3.22A2.06,2.06,0,0,1,431.45,235.67Z" transform="translate(-232 -134.75)"/><path class="cls-18" d="M462.57,256a1.4,1.4,0,0,1,.5,0l1,1.42c3.8,6.08,3.85,15.63.12,20.7a28.43,28.43,0,0,1-8.7,10.1c-3.4,2.36-7.06,3.55-11.21,2.68-1.8-2.54-1-5.23-.41-7.9.4-1.76,1.43-3.37,1.34-5.26,2.19-4.53,5-8.7,7.48-13.09,1.61-2.88,5.42-3.32,9.36-1.88-.09-3-4-2.17-4.52-4.66C458.54,255.82,460.45,255.64,462.57,256Z" transform="translate(-232 -134.75)"/><path class="cls-14" d="M464.17,278.1c.55-2.6,1.24-5.17,1.63-7.8a25.13,25.13,0,0,0-1.75-12.9l1.83-.08c1.71,6,2,12.35,3.62,18.38.37,1.37.65,2.57-.54,3.66-1.22.68-2.58.29-3.88.4C465.08,279,465,278.36,464.17,278.1Z" transform="translate(-232 -134.75)"/><path class="cls-14" d="M414.66,217.25a5.32,5.32,0,0,1-1.83-3.05C415,214.63,415.45,215.41,414.66,217.25Z" transform="translate(-232 -134.75)"/><path class="cls-19" d="M433.89,361.57l-.06-1.7c-.71-.54-1.81.11-2.39-.8h0c-.72-.66-1.77-.81-2.4-1.59h-.8a44.89,44.89,0,0,1-16.58-10.71,4.28,4.28,0,0,0-4-1.32c-5.55.94-10.95,2.24-15.31,6.16a5.14,5.14,0,0,1-3.91,1.72c-6.25-.67-9.88,3-12.78,7.73-1.17,1.93-2.35,3.57-4.93,3.27a2.75,2.75,0,0,1-1.36-1.11c-1.07-2.31-.27-4.56.21-6.83,0-.19.07-.38.1-.57.8-2.06,0-4.23.39-6.33a1.12,1.12,0,0,1,1.61.23c1,1.37.39,3.13,1.07,4.59,1.66.28,2-1.17,2.77-1.93,1.73-1.7,3.53-3.44,6-3.7a20.27,20.27,0,0,0,8.2-2.92c5.11-3,10.87-4.22,16.28-6.4,5.75-2.32,10.28-.38,12.77,5.31a13.64,13.64,0,0,0,8.91,7.88c1.82,1.29,3,3.3,5.14,4.24a2.65,2.65,0,0,1,1,.68l0,0a1.07,1.07,0,0,1,.56.88C434.61,359.46,435.12,360.65,433.89,361.57Z" transform="translate(-232 -134.75)"/><path class="cls-4" d="M434.4,358.32a.84.84,0,0,1-.56-.88,4.92,4.92,0,0,1,4.85,1.61A8.23,8.23,0,0,1,434.4,358.32Z" transform="translate(-232 -134.75)"/><path class="cls-14" d="M455.46,334.23c-1.1,4.35-2.43,8.53-5.53,12-1.83,2.07-3.47,4-6.47,4a4,4,0,0,0-1.87.55c-2.66,1.51-5,1.54-7-1.06a2.81,2.81,0,0,0-2-1.16,2.17,2.17,0,0,1-1.9-1.29c-1.52-5.09-5.62-9.86-1.6-15.63,1.8-2.57.33-6,1.58-8.88.29-.68.1-1.55.5-2.3,2.41-4.48,4.76-9,7.21-13.44a4.09,4.09,0,0,1,1.76-1.58c2.58-1.21,5.55-1.19,7.93-2.84,2.12,2.49,3.71,4.72,4.27,7.54a17.33,17.33,0,0,0-13.32,15.65c-.27,3.32-.84,6.6-1.25,9.9-.23,1.88-.76,3.89,1.38,4.93,2.36,1.14,4.87,2.6,7.46.48,2.15-1.76,4.57-3.22,6.17-5.62C453.31,334.62,453.87,333.23,455.46,334.23Z" transform="translate(-232 -134.75)"/><path class="cls-12" d="M455.46,334.23c-.52.06-1.17,0-1.38.59-1.72,4.62-6.3,6.1-9.44,9.08-2.82-1.21-5.65-1.55-8-3.21-1.13-3.54.83-6.8.74-10.18,0-.5.51-1,.43-1.5-.75-4.87,2.07-8.59,3.76-12.74,1.21-3,3.66-4.43,5.83-6.3,1.69-1.46,3.26.21,4.9.23,2.22,3.7,2.94,7.84,3.16,12C455.63,326.22,455.46,330.23,455.46,334.23Z" transform="translate(-232 -134.75)"/><path class="cls-20" d="M441.12,291.21a70.38,70.38,0,0,1-15.92,27.25c-.91,1-1.8,2-2.7,2.93a68.15,68.15,0,0,1-25,15.71c-1.24.43-2.39,1.28-3.77.52-1.19-2,.25-2.53,1.63-3.6,5.51-4.25,12.28-6.9,16.44-12.86a7.3,7.3,0,0,1,4.11-2.23c2.31,0,3.31-1.88,4.64-3.29,3.54-3.74,6.62-7.79,8.39-12.7a4.55,4.55,0,0,1,1.64-2.78,5,5,0,0,0,1.87-2.38,3.78,3.78,0,0,1,.61-.87,9.89,9.89,0,0,0,4.47-7c.76-1,1.56-1.91,3-1.47A1.86,1.86,0,0,1,441.12,291.21Z" transform="translate(-232 -134.75)"/><path class="cls-21" d="M427.69,352.54c-4.33.18-7.64-1.91-9.05-5.94-1.49-4.22-4-7.08-8.78-7.13a15.21,15.21,0,0,0-6.93,2.11,13.13,13.13,0,0,1-4,1.67c-4.56.63-8.24,3.22-12.15,5.3a5.41,5.41,0,0,1-3,.91c-3.89-.27-6.4,1.92-8.45,4.87-.83,1.19-1.53,2.55-3.59,2.08-.8-2.24-.2-4.63-.39-7l.37-.48a68.45,68.45,0,0,1,16.56-6.25c2.9-.76,5.47-2.48,8.4-3.24a5.81,5.81,0,0,1,1.16-.23c3.26-.27,5.88-2.3,8.88-3.32,7.29-2.48,10.32-1.61,13.84,5.17.83,1.59,2.12,1.27,3.25,1.74C424.86,346.18,425.56,349.65,427.69,352.54Z" transform="translate(-232 -134.75)"/><path class="cls-22" d="M397.79,339.82l-.8,0c-5.9,1.82-11.79,3.67-17.73,5.32a11.42,11.42,0,0,1-8.13-.68c-2-1,.13-3.6-1.84-4.6l-.68-.58c2.54-2.54,5.42-.38,8.13-.61,1.81.07,3.63.06,5.45,0,3.88-.21,7.63-1.69,11.59-1.29,9.37-3.19,18.15-7.41,25.28-14.48,1-1,2-1.74,3.44-1.55-.12,4,1.11,8,.25,12a2.53,2.53,0,0,1-3,.4c-3.8-1.63-7.3-.73-10.74,1.07C405.39,336.77,401,337,397.79,339.82Z" transform="translate(-232 -134.75)"/><path class="cls-20" d="M397.79,339.82c.12-1.87,1.28-2.78,2.95-3.21a56.66,56.66,0,0,0,11.38-4.23,8,8,0,0,1,6.87.08c1.2.52,2.36,1.2,3.76,1q.53,4.71,1.07,9.44c-1.12.16-1.18,1.85-2.68,1.7-1.41-.32-1.19-1.9-1.49-2.87-1.76-5.51-6.29-7.84-11.36-5.34-2.82,1.39-6.09,1.79-8.52,4.05A1.25,1.25,0,0,1,397.79,339.82Z" transform="translate(-232 -134.75)"/><path class="cls-21" d="M441.12,291.21a5.9,5.9,0,0,0-.87-2.66c.57-4.2,1-8.44,4.46-11.55a1.25,1.25,0,0,1,1.14.37c.29.81,1,1.49.35,2.53-2.11,3.38-2.11,7.18-1.94,11C443.21,291,442.1,290.46,441.12,291.21Z" transform="translate(-232 -134.75)"/><path class="cls-14" d="M463.48,283c1.68,1.45,0,1.78-.81,2.4C462.75,284.5,462.37,283.48,463.48,283Z" transform="translate(-232 -134.75)"/><path class="cls-4" d="M433.86,357.46a1.1,1.1,0,0,1-1-.68C433.34,356.75,433.79,356.82,433.86,357.46Z" transform="translate(-232 -134.75)"/><path class="cls-21" d="M377,339.83c-2.83.5-5.5-1.51-8.36-.53a60.52,60.52,0,0,1-15.67-5.78c-1.3-.66-2.63-1.27-3.94-1.91-.78.12-1.39,0-1.48-1-9.66-6.89-16.35-16.06-20.72-27a33,33,0,0,1-2.73-9.47c.95-.58,1.75,0,2.56.35a10,10,0,0,1,2.07,1.87,5.45,5.45,0,0,1,1,2c1.85,8,6.81,14.16,12.34,19.73s11.27,11.42,19.18,14a15.55,15.55,0,0,0,5.46,1,12.61,12.61,0,0,1,2.38.31c7.26,3,14.42,2,21.74-.05,3.72-1.05,5.4-4.09,8-6.21l.56-.25c1.7.31,3.11-1.11,4.8-.81,2.2-1.22,3.33-3.68,5.61-4.81h.8a1.12,1.12,0,0,1,1.61,0c-1,3.27-3.56,5.31-6.4,6.66a17.56,17.56,0,0,0-5.1,3.62c-1.85,1.85-3.71,3.73-6.72,3.53l-.22,2.19c-3.48,2-7.48,1.5-11.19,2.4A4.82,4.82,0,0,0,377,339.83Z" transform="translate(-232 -134.75)"/><path class="cls-14" d="M347.52,330.65a2.51,2.51,0,0,1,1.48,1c.55,2.82,3.31,3,5.14,4.2a15.07,15.07,0,0,0,2.52,1.12,10.45,10.45,0,0,0,2,5.14,3.87,3.87,0,0,1,.33,4.5c-1.73,2.55-2.58,5.47-3.95,8.12-3.84,1.19-6.4-.07-8.19-3.56a35.64,35.64,0,0,0-3.79-5.53c-3.13-4-1.12-8.27-1.21-12.56C343.86,332.25,346.43,333.05,347.52,330.65Z" transform="translate(-232 -134.75)"/><path class="cls-20" d="M369.77,363.07a1,1,0,0,1,.78.8,2,2,0,0,1,.14,2.61c-5.39,1.84-9.68-.38-9.84-5.11l0,.05a3,3,0,0,0,1-.92c2.32-2.05,4.37-4.54,7.83-4.69l.11.06C369.73,358.27,367.74,360.66,369.77,363.07Z" transform="translate(-232 -134.75)"/><path class="cls-19" d="M326.51,295c-.95.12-1.63-.54-2.44-.82a.6.6,0,0,1-.15-.51,52,52,0,0,1-3.52-20.72,1.87,1.87,0,0,1,1-.95,3.11,3.11,0,0,1,2.6.15,2.93,2.93,0,0,1,.92,2.81,6.19,6.19,0,0,0-.08,2.71,11.82,11.82,0,0,1,.27,2.14,25.36,25.36,0,0,0,2.28,9.49c.56,1.29,1.52,2.55.66,4.09A3.47,3.47,0,0,1,326.51,295Z" transform="translate(-232 -134.75)"/><path class="cls-22" d="M320.91,272.55c1,6.25,1,12.69,3.08,18.77a6.64,6.64,0,0,1-.07,2.34l-1.46-.78c-.21-.59-1-.83-1-1.51l0,0c.27-1,.71-2.07-.45-2.87-1.83-5-3.75-9.93-1.19-15.26C320,272.74,320.3,272.45,320.91,272.55Z" transform="translate(-232 -134.75)"/><path class="cls-21" d="M360.85,361.37c1,3.22,3.43,4.47,6.47,4.88a24.4,24.4,0,0,0,3.2,0,1.67,1.67,0,0,1,0,2.42h0c-5.66,2.58-10.29.6-11.27-4.82,0-1,.77-1.68,1.12-2.53A.41.41,0,0,1,360.85,361.37Z" transform="translate(-232 -134.75)"/><path class="cls-14" d="M312.89,287.77l2.72-.11,1.31,1.65c-.93,1.4-.65,3-.88,4.54s.1,3.8-2.34,4.33a.47.47,0,0,1-.21-.53q.11-.27.21-.27C313.63,294.16,314.06,290.9,312.89,287.77Z" transform="translate(-232 -134.75)"/><path class="cls-14" d="M322.51,304.59a2.29,2.29,0,0,1-2.22-1.21c-.94-1.64-2.45-2.05-4.19-2a2.19,2.19,0,0,1,2.31-2.4A7.32,7.32,0,0,1,322.51,304.59Z" transform="translate(-232 -134.75)"/><path class="cls-21" d="M369.29,339.88c1.25.13,1.26,1.06,1.27,2,0,.77-.06,1.57.79,2a4.23,4.23,0,0,1,0,5.59h0l-1.28,0Q369.69,344.68,369.29,339.88Z" transform="translate(-232 -134.75)"/><path class="cls-12" d="M313.7,297.38v2.41c-.79-.05-1.54-.19-1.54-1.21S312.9,297.42,313.7,297.38Z" transform="translate(-232 -134.75)"/><path class="cls-17" d="M321.42,291.37a2.08,2.08,0,0,1,1,1.51C321.92,292.51,320.06,293,321.42,291.37Z" transform="translate(-232 -134.75)"/><path class="cls-21" d="M361.86,360.5a1.21,1.21,0,0,1-1,.92C360.92,360.8,361.34,360.6,361.86,360.5Z" transform="translate(-232 -134.75)"/><path class="cls-14" d="M313.7,303a3.21,3.21,0,0,1-3.21,3.21C310.78,304.34,311.28,302.7,313.7,303Z" transform="translate(-232 -134.75)"/><path class="cls-17" d="M359.28,363.85c2.08,5.52,6.75,5,11.27,4.82-.06,1.17.22,2.37-.28,3.5-4.67,1-5,1-10.59-2.28-.67-.85.13-2.48-1.4-3C358.58,365.89,358.24,364.65,359.28,363.85Z" transform="translate(-232 -134.75)"/><path class="cls-12" d="M383.09,209.12a145.05,145.05,0,0,1-31,16.57,12.53,12.53,0,0,1-1.52.39c0-.26,0-.67.13-.76,3.61-2.17,7.09-4.62,10.91-6.34,3-1.34,6.19-2,8.42-4.72a6.4,6.4,0,0,1,5.11-2.61c2.05,0,3.2-1.68,4.8-2.5s3-2.77,5.27-2.21C385.28,208.43,384.18,208.77,383.09,209.12Z" transform="translate(-232 -134.75)"/><path class="cls-21" d="M383.09,209.12c.7-.73,1.4-1.45,2.09-2.18a11.23,11.23,0,0,0,4-3.18.72.72,0,0,1,.73-.63,6.7,6.7,0,0,0,3.1-2.56,5.61,5.61,0,0,1,4-3.39c2.45-.09,4.15-3.79,7.1-1.52.76.56.32,1.44.57,2.14a17.78,17.78,0,0,0-10.94,5.51c-2.16,2.18-5.07,3.31-7.25,5.45C385.59,209.68,384.26,209.19,383.09,209.12Z" transform="translate(-232 -134.75)"/><path class="cls-14" d="M396.79,198,393,200.57c.25-3.56,1.59-6.53,5.08-7.83,1.6-.59,1.8-2.75,3.69-2.71h0a2.08,2.08,0,0,1,.6,1.6C401.22,194.36,399.73,196.8,396.79,198Z" transform="translate(-232 -134.75)"/><path class="cls-14" d="M389.93,203.13l-.73.63c-.54-.3-1.27-.67-.57-1.31S389.65,202.59,389.93,203.13Z" transform="translate(-232 -134.75)"/><path class="cls-5" d="M475.48,297.38c1.66,3.86,3.36,7.7,4.95,11.58,1.81,4.42,3.2,9,3,13.8-.05,1.54.78,2.8.84,4.26-2.73.39-2.6,3-2.94,4.63a13.32,13.32,0,0,1-4.67,7.52c-1.82,1.64-3.7,3.21-4.72,5.76-.84,2.08-3.07,3.4-6,3.66.41-2.3.62-4.36-.71-6.16a1.58,1.58,0,0,1-.12-1.16c1.71-6.8-1.13-13.24-1.5-19.87-.3-5.56-2.7-10.74-2.59-16.37.12-5.86,2.33-11,4.53-15.81,1.65-1,3-.53,4.32-.65l1.6.8c.65.35.34,1.17.8,1.6A15.33,15.33,0,0,0,475.48,297.38Z" transform="translate(-232 -134.75)"/><path class="cls-14" d="M472.28,291c-.75-.28-.79-.93-.8-1.6s-.18-1.55.68-2.25C474,288.35,472.73,289.69,472.28,291Z" transform="translate(-232 -134.75)"/><path class="cls-20" d="M320.09,234.09c2.41-.31,4.77-1,7.23-.8.53.67,1.63.16,2.07,1a2.77,2.77,0,0,1-1.14,2.7c-2.68,1.22-3.56,4-5.09,6.11-2.07.21-3-.94-3.72-2.44C319.45,238.46,318.72,236.17,320.09,234.09Z" transform="translate(-232 -134.75)"/><path class="cls-8" d="M320.09,234.09c.05,2.41.09,4.83.13,7.24,2,6.56,1.41,13.17.28,19.78a1.54,1.54,0,0,1-2.1.3v0c0-8.13.06-16.25.12-24.37C318.52,235.86,318,234.22,320.09,234.09Z" transform="translate(-232 -134.75)"/><path class="cls-22" d="M336.93,230.92V232c-.94,1.94-2.39,2.25-4.22,1.32a.8.8,0,0,1,.17-1.13A6.55,6.55,0,0,1,336.93,230.92Z" transform="translate(-232 -134.75)"/><path class="cls-19" d="M332.87,232.16l.05,1.06a3.3,3.3,0,0,1-3.24,1.55c-.76-.53-1.88-.5-2.36-1.48Z" transform="translate(-232 -134.75)"/><path class="cls-9" d="M311.3,428.77c1.45,1.37.22,1.43-.79,1.6C310.5,429.7,310.54,429.06,311.3,428.77Z" transform="translate(-232 -134.75)"/><path class="cls-5" d="M303.42,255.79l.77.84-.84-.77Z" transform="translate(-232 -134.75)"/><path class="cls-20" d="M396.79,198c1.64-2.14,3.73-3.92,5-6.33a1.07,1.07,0,0,1,1.58,0l.75,4c-1.6-.16-3.08,0-4.18,1.39C399.14,198.12,398,198.13,396.79,198Z" transform="translate(-232 -134.75)"/><path class="cls-11" d="M403.39,191.63h-1.58V190C402.92,190,403.49,190.48,403.39,191.63Z" transform="translate(-232 -134.75)"/><path class="cls-23" d="M370.56,368.68l0-2.42,0-2.39a5.19,5.19,0,0,0,4.3-3.42c1.94-4.3,5.68-7,10.15-8.51,1.39-.48,2.52.69,4.48.67,5.26-5.53,12.58-7.6,20.64-8.65,2.57,2.05,4.8,4.9,7.82,6.87,2.48,1.62,4.76,3.56,7.74,4.3a3.88,3.88,0,0,1,2.55,2.34,14.61,14.61,0,0,1-9.39-2.2c-3.64-2.31-7.74-3.92-11.74-5.87-2.18.79-4.26,2-6.79,1.73-1.95-.17-3.34,1.45-4.73,2.6-2.78,2.32-5.53,4-9.51,3.88s-6.88,2.14-9.15,5.44C375.3,365.39,373.6,367.85,370.56,368.68Z" transform="translate(-232 -134.75)"/><path class="cls-23" d="M431.44,359.07c.85.08,1.88-.32,2.39.8C432.81,360.27,431.54,361.4,431.44,359.07Z" transform="translate(-232 -134.75)"/><path class="cls-23" d="M429,357.48a2.23,2.23,0,0,1,2.4,1.59C430.29,359.06,429,359.26,429,357.48Z" transform="translate(-232 -134.75)"/><path class="cls-21" d="M320.91,272.55a11.88,11.88,0,0,0-1,9.4,14.87,14.87,0,0,1,1,6.59c-.51-.06-1.22,0-1.36-.56-.85-3.53-2.44-6.94-1.87-10.72,0-.13-.05-.3,0-.39,2.89-4.81-.06-9.95.85-14.86a3.44,3.44,0,0,1,2-.21c2.35,2.59,1.32,5.95,2,8.92a3.51,3.51,0,0,1-.86,1.82Z" transform="translate(-232 -134.75)"/><path class="cls-12" d="M320.25,262.21l-1.69-.2a4.44,4.44,0,0,1-.16-.6l1.63-.08a.62.62,0,0,1,.31.54C320.34,262.09,320.31,262.21,320.25,262.21Z" transform="translate(-232 -134.75)"/><path class="cls-24" d="M425.83,236.5v.79c6.31,6.82,6.06,15.71,7.12,24,.57,4.49-2.65,8.57-4.39,12.71-3.51,8.35-8.17,16.15-12.35,24.18a73.24,73.24,0,0,1-17.53,22c-6.91,5.89-14.6,9.44-24.65,8.15-7.29-.93-12.38-5.13-18.45-7.86-1.35-.6-2.18-2-3-3.18a55.29,55.29,0,0,0-14.72-15,14.84,14.84,0,0,1-4-4.95,34.08,34.08,0,0,0-5.29-7,4.47,4.47,0,0,1-.62-1.7c-1-5.35-2-10.71-3.31-16a2.28,2.28,0,0,1-.09-1.79,2.21,2.21,0,0,1,2.08-1.13c1.83.63,1.89,2.32,2.45,3.81,1.75,4.72,2.56,9.73,5.12,14.22,2.06,3.61,4.45,6.52,8.35,8.19,2.42,1,3.71,3.38,5.22,5.4,2.22,2.94,4.83,3.94,8.36,2.31a33.74,33.74,0,0,1,5.63-2c2.43-.64,4.74-.63,5.94,2.11-.81,2.1-2.79,1.54-4.12,2.23a3.63,3.63,0,0,0-1.28,2.31c-.67,2.52-.31,4.74,1.74,6.55a6.47,6.47,0,0,1,1.8,3.07c.24.77.55,1.89,1.27,1.91,4.71.11,8.66,3.57,13.77,2.47,10.83-2.34,18.52-8.86,24.94-17.35,1.53-2,2.12-4.53,3.41-6.72,5-8.53,11-16.62,13.66-26.34.88-3.19,1.48-6.4,3.36-9.24a4,4,0,0,0,.48-3.48c-1.46-4-1.12-8.14-1.18-12.26A11.38,11.38,0,0,0,424.1,242c-.94-1.88-2.09-3.79-1-6C424.26,235,425,235.84,425.83,236.5Z" transform="translate(-232 -134.75)"/><path class="cls-16" d="M328.92,290.17c2.83.62,3.63,3.25,4.92,5.25a34.79,34.79,0,0,0,7.37,8c4,3.28,8.27,6.56,10.88,11.33,1.67,3.05,3.8,5.82,7.49,6.57,1.85.39,2.76,2,4.26,2.81,2.77,1.54,5.24,3.55,8.77,2.31,1.52-.53,2.72,1,4.42,1.11,3.57.18,7-1.07,10.59-.44a10.57,10.57,0,0,1,7.3-5.07c2.28-.4,2.86-2.62,4.34-3.87a52.28,52.28,0,0,0,7.58-7.87c.48-.63.71-1.54,1.3-2,4.19-3.07,5.35-8.09,7.88-12.22A118.17,118.17,0,0,0,423.75,282c1.84-4.22,4.6-8.07,5.4-12.74.29-1.72,1.74-2.89,2.35-4.54,1.3-3.48.37-6.8-.32-10.11a62.65,62.65,0,0,1-1.45-7.75,8.47,8.47,0,0,0-2.27-5.68c-1-1-2-2.22-1.63-3.88,3.93.82,5.3,3.9,6.41,7.22,3.69,6.19,7.31,12.35,4.74,20.07-1.31,3.91-2.27,7.94-3.38,11.92-1.54,5.52-5.6,9.64-7.92,14.72-4.17,9.17-10.82,16.72-17.27,24.15-5.53,6.36-11.39,13-19.92,16-3.28,1.13-6.58.81-9.88.48a59.43,59.43,0,0,0-6-.54c-9.74,0-17.42-3.84-23.16-11.79A58.49,58.49,0,0,0,337,306.17c-4.53-3.35-6.1-8.89-8.43-13.79A1.77,1.77,0,0,1,328.92,290.17Z" transform="translate(-232 -134.75)"/><path class="cls-23" d="M328.92,290.17a6.16,6.16,0,0,0,1.32,4.08,16.32,16.32,0,0,1,1.82,3.07c1.85,5.49,6,8.92,10.51,12.06.89.62,2,1.21,2.35,2.11,1.37,3.28,4.23,5.4,6.1,8.29A22.82,22.82,0,0,0,368.18,330a111.32,111.32,0,0,0,17.05,1.08c1.52-.07,2.87-.15,4-1.4a7,7,0,0,1,4.14-2.29c3.45-.5,5.06-3,7-5.35,2.08-2.53,4.07-5.27,7.58-6.63.61-.53-.09-1.81.59-2.4,4.2-3.67,6.83-8.66,10.66-12.62.94-1,2.07-1.87,2.3-3.16.48-2.75,2.26-4.65,3.66-6.87,4.68-7.45,8.63-15.27,10.33-24a16.47,16.47,0,0,1,.93-3.44,8.83,8.83,0,0,0-.21-7.71c-1.71-3.43-2.34-7.21-3.92-10.65.39.06,1,0,1.14.2,2,3.11,5,5.43,5.39,9.66.45,4.81.05,9.64.68,14.42.29,2.24-.66,4.1-1.53,6.07-2.09,4.7-5,8.94-7.45,13.41-1.69,3-4.61,5.09-6,8.36s-3.85,5.82-6.08,8.58c-2.45,3-4.9,6.12-7.33,9.22a24,24,0,0,1-4.6,4.58,24.67,24.67,0,0,0-7,8h0c-7.38,7.2-16.13,9.41-26.11,7.19-1.44-.32-2.88.16-4.33,0h-2.4c-3.47-2.5-7.57-3.85-11.39-5.55-4-1.78-6.64-4.67-9.53-7.55-6.79-6.77-12.71-14.15-16.73-22.94l-.8-1.59a4,4,0,0,1-.8-3.22,2.14,2.14,0,0,0,0-2.1,22.09,22.09,0,0,1-3.21-11.52c2-.95,2,.64,2.43,1.86.76,2.33.77,4.92,2.37,7Z" transform="translate(-232 -134.75)"/><path class="cls-15" d="M348.13,231.56c.09-.69.25-1.36,1.09-1.42,2.76-.19,5-1.9,7.67-2.49a9.33,9.33,0,0,0,5.61-3.51,5.35,5.35,0,0,1,2.65-1.73,87.58,87.58,0,0,0,22.19-11.68c3.17-2.26,6.33-4.61,9.68-6.64s5.06-1.61,7.15,1.93c1.28,2.14,2.35,4.41,3.67,6.52,3,4.82,6.12,9.56,9.19,14.34.86,2.25,3.79,3.56,3,6.57a1.76,1.76,0,0,1-.72.83c-2.86-2.16-6.06-3.89-8.41-6.71-.56-6.86-5.82-11.11-9.24-16.35-1.51-2.32-4.16-2-6.06-.53-10.1,7.76-22.32,11.66-33,18.36a35.63,35.63,0,0,1-10.74,4.16C350.3,233.35,348.78,233.43,348.13,231.56Z" transform="translate(-232 -134.75)"/><path class="cls-19" d="M412.22,321.42h-1.61c.48-2.66,2.27-4.1,4.33-5.76,2.62-2.11,6.13-3.68,7-7.63a6.58,6.58,0,0,1,1.84-3c4.61-4.6,7.42-10.42,11.06-15.69,2.55-3.7,4.79-7.52,6.95-11.42a4.83,4.83,0,0,0,.87-3c-.33-3.18,1.62-5.52,3-8.07a3.14,3.14,0,0,1,3.41-1.56c-.54,4.27-2.26,8.14-4,12a8.2,8.2,0,0,0-2.36,5.58c.06,2.27-2.27,3.47-2.4,5.63l-2.41,1.62c-2.08,2.08-2.59,5.21-4.8,7.21,0,.27,0,.53,0,.8-.8.62-1,1.65-1.59,2.41a2.27,2.27,0,0,0-1.61,2.4c-4.18,4.08-6.07,9.88-10.48,13.82-1.07.95-2.08,2-3.14,3C414.67,319.83,413.56,320.91,412.22,321.42Z" transform="translate(-232 -134.75)"/><path class="cls-25" d="M348.13,231.56a8.21,8.21,0,0,0,4,.89c2.16-.18,3.61.7,4,2.89a2.86,2.86,0,0,1-2.57,3.69,11.19,11.19,0,0,1-2,.12,14.9,14.9,0,0,1-3.19-.33,10.65,10.65,0,0,0-2.45-.42c-4.19,0-8.46-.62-12.42,1.44a8.28,8.28,0,0,1-5.21.64,2.88,2.88,0,0,1-1.15-.69c-.7-1.56.12-2.55,1.27-3.42l1.3-1.6,3.24-1.55a12.43,12.43,0,0,0,4-1.25C340.63,231.2,344.39,231.53,348.13,231.56Z" transform="translate(-232 -134.75)"/><path class="cls-8" d="M441.05,240.37l.39-1.34c5,1.52,9.71,1,13.85-2.3,1.68,2.8.63,4.55-.28,6.3-1,2,.39,3.83.34,5.83-1.33.64-1.81.32-2.38-1a10.83,10.83,0,0,0-8.23-6.6c-.72,2.45,1.63,3.41,1.86,5,0,1.23-.78,1.44-2.14,1.51,1.42,2.5-.58,5.49,1.84,7.79,1.87-.51,2.07-4,4.77-2.54-1.23,3.27-2.74,6.38-5.41,8.77-1.8.56-1.51-.82-1.61-1.77-.47-4.39-.33-8.83-1.37-13.16a2.62,2.62,0,0,1-.87-1.48C441.73,243.71,441.19,242.07,441.05,240.37Z" transform="translate(-232 -134.75)"/><path class="cls-20" d="M445,277.34c.19-4.38,1.84-8.28,4-12l.84-3.2c1.48-4.39,4-5.65,8-4,2,1.09,4.35,1.63,5.71,3.74a2.08,2.08,0,0,1,.31,2.4c-2.12.8-3.37-1.2-5.16-2l-5.2,2.15c-2.14,4.44-4.2,9.14-7.68,13Z" transform="translate(-232 -134.75)"/><path class="cls-23" d="M457.87,258.1h-4.13c-.57,2-3.05,2.16-3.89,4a5.19,5.19,0,0,0-2.7.52c-.78.4-1.19-.19-1.49-.83,1.39-3.18,2.68-6.42,5.41-8.77l0-.17c.29-1.55,1.31-.92,2.18-.73l3-.31q.57-.68.87.15c1.93,1.17,4.31,1.72,5.46,4C461.22,257.15,459.12,256.69,457.87,258.1Z" transform="translate(-232 -134.75)"/><path class="cls-21" d="M441.05,240.37c1.87,1.24,1.53,3.13,1.45,4.95-2.1,1.61-3.75.25-5.45-.82a1.09,1.09,0,0,0-.8-.8c-.61-.75-.81-1.78-1.61-2.4-1.79,0-1.59-1.25-1.6-2.4-.21-.77.25-1.14.84-1.44,2.25-.26,4,.8,5.57,2.21A1.58,1.58,0,0,0,441.05,240.37Z" transform="translate(-232 -134.75)"/><path class="cls-16" d="M419.43,233.28c.36-2-1.09-3.05-2.26-4.27-.62-.64-1.5-1.34-.14-2.13.4,0,1-.15,1.16.05,2.76,3,6.68,5.12,7.64,9.57-.94.13-1.61-.52-2.4-.8l-.49,0a18.63,18.63,0,0,1-2.67-1.17C419.86,234.17,419.77,233.64,419.43,233.28Z" transform="translate(-232 -134.75)"/><path class="cls-19" d="M437.05,244.5c1.88-.18,3.54,1.21,5.45.82l.18,1.57c-1.67.77-.06,2.85-1.82,4C440.21,248.29,438.26,246.65,437.05,244.5Z" transform="translate(-232 -134.75)"/><path class="cls-19" d="M409.81,321.41c-.52,1.41-2,2.07-2.57,3.5s-1.8,1.38-3,1.31C405.38,323.81,406.67,321.53,409.81,321.41Z" transform="translate(-232 -134.75)"/><path class="cls-19" d="M434.61,237.71A2.38,2.38,0,0,0,433,238.9c-2.33-.2-2.73-1.33-1.59-3.23l1.77.75A2.77,2.77,0,0,1,434.61,237.71Z" transform="translate(-232 -134.75)"/><path class="cls-19" d="M434.64,241.3c1.79,0,1.6,1.25,1.61,2.4A2.25,2.25,0,0,1,434.64,241.3Z" transform="translate(-232 -134.75)"/><path class="cls-8" d="M434.61,237.71l-1.39-1.29a5.8,5.8,0,0,1,6.23,3.25C437.64,239.51,436.31,238.15,434.61,237.71Z" transform="translate(-232 -134.75)"/><path class="cls-8" d="M453.23,252.15l-2.18.73c-.29-.74-.53-1.51.51-1.82S453,251.34,453.23,252.15Z" transform="translate(-232 -134.75)"/><path class="cls-8" d="M457.11,252l-.87-.15c.13-.17.24-.47.37-.49C457,251.32,457,251.7,457.11,252Z" transform="translate(-232 -134.75)"/><path class="cls-23" d="M463.27,269.93c.09,5.63-3.28,8.8-7,11.9-1.58,1.31-3.44,1.2-5.14,1.79-1.1.39-1.9-.64-2-1.85.07-1.53,1.63-2.06,2.15-3.27-.89-5.84,2.21-10.32,8.57-12.22C461.12,267.44,461.83,269.24,463.27,269.93Z" transform="translate(-232 -134.75)"/><path class="cls-22" d="M369.77,363.07a4.26,4.26,0,0,1-1.12-5.6,11.74,11.74,0,0,1,1.15-1.6,1.21,1.21,0,0,1,.64,1.6C369.6,359.28,369.83,361.19,369.77,363.07Z" transform="translate(-232 -134.75)"/><path class="cls-21" d="M416.21,319.8c-.1-1.22.7-2,1.5-2.67a40.74,40.74,0,0,0,8.05-10.75c.93-1.62,1.94-3.19,4.07-3.39.15,2.88-2.14,4.66-3.4,6.8-1.9,3.21-4.66,5.91-7,8.84A3.32,3.32,0,0,1,416.21,319.8Z" transform="translate(-232 -134.75)"/><path class="cls-21" d="M433,297.38c.31-2.23,1.74-4,2.59-6a2.11,2.11,0,0,1,2.21-1.25C437.8,294.49,437,295.74,433,297.38Z" transform="translate(-232 -134.75)"/><path class="cls-21" d="M431.44,300.59c0-1.16-.2-2.45,1.59-2.41A2.25,2.25,0,0,1,431.44,300.59Z" transform="translate(-232 -134.75)"/><path class="cls-20" d="M371.37,349.45c0-1.86,0-3.72,0-5.59,4.49,1.09,8.57.25,13-1.31,4-1.41,8.23-2.86,12.67-2.71-.12.23-.22.64-.38.67-3.3.59-5.86,2.94-9.31,3.51-3.81.63-7.42,2.46-11.09,3.83C374.62,348.44,373.25,349.71,371.37,349.45Z" transform="translate(-232 -134.75)"/><path class="cls-20" d="M377,339.83c1.63-2.26,4-2.26,5.62,0Z" transform="translate(-232 -134.75)"/><path class="cls-17" d="M328.91,298.18c1.94-.1,2.49,1.43,2.94,2.77,1,3,2.88,5.59,4.27,8.41a2.76,2.76,0,0,0,.63,1c5.28,4.23,8.94,10,13.74,14.63,1.16,1.13,2.62,1.52,4,2.2,3.86,1.89,7.81,3.6,11.63,5.57.31.17.3,1,.44,1.46-5.15,0-9.58-2.14-13.53-5.16a119.38,119.38,0,0,1-15.55-14c-1.29-1.41-1.9-3.11-2.87-4.58C332.13,306.7,328.5,303.33,328.91,298.18Z" transform="translate(-232 -134.75)"/><path class="cls-17" d="M369,334.23c1-1.39,2.8-.45,4-1.66a5.47,5.47,0,0,0,6.2,1.11c1.42-.55,3.35-.2,4.87,0,2.47.32,4.07-.59,6.11-1.6,3.16-1.57,5.86-3.95,9.25-5,.09,1.73-1.38,2.46-2.32,3.5a14.09,14.09,0,0,0-3,3.69c-3.93-.48-7.15,1.76-10.92,1.92s-7.45,1.33-11-1C371.26,334.58,369.74,335.6,369,334.23Z" transform="translate(-232 -134.75)"/><path class="cls-17" d="M327.31,293.37a5,5,0,0,1,.8,3.22,2.5,2.5,0,0,1-1.6-1.6C326.52,294.32,326.55,293.67,327.31,293.37Z" transform="translate(-232 -134.75)"/><path class="cls-16" d="M328.91,288.57c-1.75,0-2.14-1.45-2.28-2.63-.2-1.66-1.16-3.14-1-4.89.11-1-.7-1.24-1.54-1.3v-2.4c0-.53,0-1.07,0-1.6v-3.2a.49.49,0,0,1,.81,0c1.91,0,1.66,1.47,1.67,2.56.06,3.84,1.21,7.43,2.22,11.07A10.51,10.51,0,0,1,328.91,288.57Z" transform="translate(-232 -134.75)"/><path class="cls-23" d="M324.91,272.55h-3.18l0-1.59a2.51,2.51,0,0,1,1.61-.73,2.07,2.07,0,0,1,1.59.72Z" transform="translate(-232 -134.75)"/><path class="cls-23" d="M324.11,275.75c.95.53.95,1.07,0,1.6C323.16,276.82,323.16,276.29,324.11,275.75Z" transform="translate(-232 -134.75)"/><path class="cls-19" d="M323.31,270.94h-1.6c-1-2.83-.25-5.95-1.46-8.74l-.22-.88c.14-6.67-.3-13.34.19-20,1.11-.2,1.41,1,2.51,1.41,1-2.88,1.89-6,5.65-6.37l-.83,3.19c-1.89,6.11-4.1,12.15-4,18.7a10.07,10.07,0,0,0,1.07,5C324.47,265.86,325,268.59,323.31,270.94Z" transform="translate(-232 -134.75)"/><path class="cls-26" d="M423.43,235.7a8.92,8.92,0,0,0,1.64,6,9.06,9.06,0,0,1,1.6,5.6c.06,3.93-.44,7.84,1.3,11.75.77,1.71-.11,4.42-1.69,6.2a18.74,18.74,0,0,1-2.27,1.8c1.3,2.17.36,3.75-.07,5.53-1,4.12-3.48,7.52-4.88,11.45-.9,2.52-1.7,5.58-4.61,7.16a4.34,4.34,0,0,0-2,2.83,9.58,9.58,0,0,1-3.35,6.13c-.29.26-.67.65-.66,1,.11,4.45-3.66,6.55-5.94,9.42s-5.62,5.14-8.64,7.52c-4.85,3.8-10.76,4-16.36,6.53-3-3.29-7.51-2.83-11.89-3.42-.67-3-1.07-6.19-4.63-7.41.37-2.1-1-4.27,1-6a1.39,1.39,0,0,1,.91-.38,2.12,2.12,0,0,1,.92.38c.5.45.78,1.09,1.32,1.5,6.59,1.59,12.94.62,19.15-1.75a16.74,16.74,0,0,0,4.26-1.82c.25-.21.52-.4.77-.59l.74-.59c.23-.2.47-.39.72-.58.46-.41.87-.89,1.29-1.34a5.21,5.21,0,0,1,1.59-1.08A4.9,4.9,0,0,0,395.5,300a3.33,3.33,0,0,1,.73-.62,6.44,6.44,0,0,0,.7-.34c-.11-.29-.5-.33-.59-.65a4.24,4.24,0,0,1-.34-3.18,2.55,2.55,0,0,1,1.63-1.65c4.25-.86,5.95-4,7.31-7.65a7.46,7.46,0,0,0,.44-5.34c-1.11-3.38-1.09-6.6,2.63-8.66a5.85,5.85,0,0,0,2.46-3.54,10.67,10.67,0,0,1,3.32-4.86c3.06-2.61,2.93-4.15-.26-7.08a22,22,0,0,0-2.61-4.66l-.65-.79-.38-.34c-.58-.41-1.24-.67-1.8-1.11a3,3,0,0,1-.54-1c-.4-2.36,1-3.42,3-4a25.91,25.91,0,0,1,3.93-.61c4.74-.53,4.83-.63,4.43-5.38a5.61,5.61,0,0,1-.08-1.16,3,3,0,0,1,.39-1.11,4.21,4.21,0,0,1,2-1.19,2.65,2.65,0,0,1,2.2.55Z" transform="translate(-232 -134.75)"/><path class="cls-26" d="M362.56,305.6c.9-2.12,3.34-.08,4.59-1.78a3.92,3.92,0,0,0-5.18-1.25c-2.88,1.4-6.14,1.77-8.68,3.48-3.33-.52-5.34-2.41-7-5a12.09,12.09,0,0,0-6.24-5.29c-2.64-.94-3.94-3.24-5.62-5.36-3.42-4.31-3.47-9.87-6.08-14.44-1-1.69.2-4.3-1.87-5.8a3.66,3.66,0,0,1-.73-3.56,21.77,21.77,0,0,1,4.56-7.78,1.83,1.83,0,0,1,1.21-.23,2.07,2.07,0,0,1,1.29,1.32c.45,2.48.56,5,.76,7.51-2,4.66-.76,8.62,2.81,11.92a46.72,46.72,0,0,1,4.74,5.41c2.63,3.32,5.85,4.17,9.93,2.87,2.21-.71,4.19-2.54,6.8-1.62,1,1.09,1,2.51,1.46,3.8,2.13,5,7.52,6.18,11.81,2.57a4,4,0,0,1,1.56-.65,16.24,16.24,0,0,0,3.27-.79c1.23-.17,2.29-1.62,3.71-.55,1.22,2.34-1.36,4.16-.91,6.42,1.15,1.5,2.86,1.07,4.37,1.22,1.84.2,3.42.62,3.39,2.95a3.55,3.55,0,0,1-.29,1.06,6.81,6.81,0,0,1-1.49,1.54,2.28,2.28,0,0,1-1.4.56c-1.25-.53-1.61.76-2.4,1.19C374.85,307.15,368.73,308.26,362.56,305.6Z" transform="translate(-232 -134.75)"/><path class="cls-16" d="M326.51,266.14v4l-1.6.8h-1.6c0-2.69-.19-5.4.79-8a22.31,22.31,0,0,1,.8-13.47,9.26,9.26,0,0,0,.77-3.44c0-1.41.24-2.7,2.1-2.65a28,28,0,0,1,4.82,12,4.46,4.46,0,0,1-1.1,3.44l-1,.07C328.18,260.77,326.43,263,326.51,266.14Z" transform="translate(-232 -134.75)"/><path class="cls-14" d="M362.56,305.6c6.24.66,12.45.82,18.54-1.08a8,8,0,0,0,1.07-.5c.12-.89.69-.54,1.17-.42a.69.69,0,0,0,.9-.39c.34-.71,1.12-.6,1.68-.89v0c.44-1.46,1.45-1.8,2.81-1.44a4.4,4.4,0,0,1,2.23,2.63,1,1,0,0,1-.53.93l.08,0c-.18.43-.42.77-1,.72v-.08c-1,1.4-2.67,1.42-4.14,1.84-1.28,0-2.55-.29-3.81-.19-.18-.61-.7,0-.42.07,1.44.51.72,1.25,0,1.92-5.52,1.74-11.06,2.36-16.67.45-.39-.57-1.34-.47-1.5-1.29.66-.5,1.48-.37,2.31-.55a5.23,5.23,0,0,0-2.39.51l-1-.12A2.34,2.34,0,0,1,362.56,305.6Z" transform="translate(-232 -134.75)"/><path class="cls-27" d="M419.24,236.9l.19,1.2c-1.68,1.53-3.52.8-5.28.29-8.42-2.42-16.84-2-25.28-.11a10,10,0,0,0-6.51,4.21c-2.85,4.14-6.45,6.06-11.64,4.08a25.54,25.54,0,0,0-10.58-1.78c-3.82.22-6-2.48-8.49-4.61a1.76,1.76,0,0,1-.49-1.16c.46-.58,1.13-.5,1.75-.59,1.41-.2,2.56-.81,2.76-2.33s-.94-2.3-2.17-2.89c-.47-.22-.91-.5-1.36-.76,8.45-2.69,15.59-8,23.57-11.65,2.72-1.23,5.1-3.37,8.27-3.59a2.7,2.7,0,0,0,1.67-1c2.62-2.63,6.14-4,9-6.35,3.18-2.63,6.17-1.68,8.76,1.73,2,2.61,3.3,5.63,5.72,8s2.54,5.45,2.35,8.58c-5,.62-10.05-.8-15.06.58a41.58,41.58,0,0,0-8,2.58c-1.35.69-3,1.28-3.12,3.75,5.92-.21,11.48-2.3,17.32-2.14S413.91,234.76,419.24,236.9Z" transform="translate(-232 -134.75)"/><path class="cls-25" d="M419.24,236.9a4.77,4.77,0,0,1-3.86-.3c-9.07-3.69-18.22-2.87-27.39-.5-1.27.32-2.51,1-3.85.34-.92-2.91-.5-4.08,2.49-5.54a36.74,36.74,0,0,1,20.53-3.59c1.45.16,2.87.55,4.31.83a16,16,0,0,1,7.84,6.16,1.42,1.42,0,0,1,.13,2.2A.3.3,0,0,0,419.24,236.9Z" transform="translate(-232 -134.75)"/><path class="cls-28" d="M419.44,236.5l-.13-2.2.12-1,.82.8a2,2,0,0,1,.78,1.61C420.74,236.45,420.1,236.49,419.44,236.5Z" transform="translate(-232 -134.75)"/><path class="cls-28" d="M351.34,238.9c1.35,1,3.18,1.11,3.9,3.22.41,1.2,2.29,1.7,3.84,1.58,5.68-.44,10.92,1.42,16.45,3.1,2.44-1.24,4.89-2.64,6.25-5.46,1.92-4,6-3.9,9.49-4.77,4.12-1,8.38-.87,12.62-.91a31.12,31.12,0,0,1,10.47,1.72,14.23,14.23,0,0,0,5.07.72c1.43,3.61,1.23,4.64-1.39,7.08-3.22-.33-6.4-.34-9.26,1.06-.85,1.08-.44,2.2-.68,3.2-1.53.88-3.11.12-4.66.08a15.07,15.07,0,0,0-12.35,5.23c-1.08,1.23-2,2.51-1.36,4.28,1.66,7,3.9,8.47,11.15,7.26,2.69-.42,5.52-.34,7.83-2.13.57-.33,1.18-.61,1.75-.94a4.84,4.84,0,0,0,1-.91,8.31,8.31,0,0,0,.44-.76,5.36,5.36,0,0,0,.27-1.31,5.47,5.47,0,0,1,.35-1.79.81.81,0,0,0,.09-1.32,1.87,1.87,0,0,1,0-.94c.25-.45.57-.76,1.14-.53.54,1.42,2.31.38,3.06,1.58a21.35,21.35,0,0,1,0,5.42l-4.28,3c-2.42,6.68-2.42,6.68-6.41,8.46-.47,2.46-1.12,5,.79,7.37a2.3,2.3,0,0,1,0,3c-1.8,2.09-2.18,4.76-3.08,7.12-2.19,2.34-5.73,2-7.86,4.27a3.45,3.45,0,0,1-3.27,1.91c-.44-.26-.5-.17-.15.28a4,4,0,0,1-3.67,3.11l-3,1.19-.41-3c-2.83-1.06-6.08.74-8.45-1.91-.07-2.64,2.69-4.49,2.31-7.28-.23-.67.14-1.1.58-1.51,2.72-3.4,1.88-8-2.4-11.92-.81,2.51,1.3,6.16-2.88,7.11-2.71.62-5.38,1.94-8.1,1.88-3.56-.08-5.2-2.75-5.72-6.1-.09-2,1-3.56,1.94-5.15,3.06-5,4.61-10.21,2.16-16.09,1.9,7.91-1.43,14.6-4.6,21.33a19.68,19.68,0,0,0-1,3.34c-.37,1.13-.58,2.34-1.63,3.1-2,.73-4,1.4-5.9,2.2-4.81,2-8.2.94-11.61-3.19-1.48-1.79-2.75-3.71-4.77-5.19-3-2.16-3.66-5.82-4.17-9.39-.23-1.59,1.2-1.91,1.68-2.92,1.51-.36,2.48.7,3.48,1.46,4,3.05,8.2,3.06,12.57.95,5.24-4,6.08-6.28,4.05-11a10.7,10.7,0,0,0-11.85-6.63c-1.43.21-2.85.69-4.32.26-1.92-2.86-4.5-5.29-5.73-8.6-.53-1.43-1.92-1.77-3-2.51a1.07,1.07,0,0,1,0-1.54l4.79-1.1A46.57,46.57,0,0,1,351.34,238.9Z" transform="translate(-232 -134.75)"/><path class="cls-23" d="M328.14,240.07l0,1.24a1.67,1.67,0,0,1,0,2.39c-.51.09-1.28.06-1.33.62-.49,5.35-3.11,10.41-2.1,16a7.45,7.45,0,0,1-.58,2.64,1.46,1.46,0,0,1-1.59-1.78c.32-4.14-1-8.47,1.58-12.34a3.29,3.29,0,0,0,.58-2.23c-.69-3.08.54-5.26,2.88-7Z" transform="translate(-232 -134.75)"/><path class="cls-27" d="M351.34,238.9c-4.53,0-9.08.18-13.59-.1-1.65-.1-3.19,1.5-4.82.17,4.33-2.38,9-1.74,13.63-1.56a2.93,2.93,0,0,0,1.88.35l2.9.45c.26.13.35.27.28.42s-.16.23-.24.23Z" transform="translate(-232 -134.75)"/><path class="cls-21" d="M348.44,237.76c-.71.31-1.37.4-1.88-.35A2,2,0,0,1,348.44,237.76Z" transform="translate(-232 -134.75)"/><path class="cls-17" d="M351.38,238.86c0-.22,0-.43,0-.65l1.57.22C352.5,239,351.93,238.88,351.38,238.86Z" transform="translate(-232 -134.75)"/><path class="cls-24" d="M421,235.69c-.77-.29-.8-.93-.78-1.61,1.37-.07,2.62.08,3.17,1.62Z" transform="translate(-232 -134.75)"/><path class="cls-14" d="M413.79,255.66l-.82.84c-.53.64-1.12.45-1.72.12-.37-.26-.71-.56-1.06-.86a6.76,6.76,0,0,1-.66-.54,5.12,5.12,0,0,1-.58-.56l-.24-.32c-.08-.23-.16-.46-.22-.7-.48.09.08.71-.41.8a2.11,2.11,0,0,1-.93.11c-1.6-.7-3.22-1.35-4.8-2.07-1.93-1.08-3.6-.2-5.28.68-3.58.93-4.8,4.89-8,6.25-1.29-2,0-3.62,1.16-5,4-4.55,9-6.71,15.21-5.58.9.16,1.8.39,2.7.58h0c.57.65,1.93-.39,2.15,1l.13,0c.63-.23.77.21.91.66C412.42,252.5,414.06,253.54,413.79,255.66Z" transform="translate(-232 -134.75)"/><path class="cls-12" d="M392.47,297.5c1.59.35,2-2,3.54-1.63a4.22,4.22,0,0,1,.77,3,1,1,0,0,1-.58.9h0a5.1,5.1,0,0,1-2.63,2.32,2.37,2.37,0,0,0-1.39,1c-.48.33-.74,1.18-1.58.66-.43-1-2-1.19-1.68-2.63.88-1.45,3.14-1.57,3.45-3.58l-.21-.33Z" transform="translate(-232 -134.75)"/><path class="cls-27" d="M364.54,309.17c5.81.35,11.65,1.09,17.27-1.27a2.07,2.07,0,0,1,2.73-.53l.44.42c-3.28,2.92-7.52,2.5-11.39,3.14a20.22,20.22,0,0,1-9.64-1,.37.37,0,0,1,0-.3A5.31,5.31,0,0,1,364.54,309.17Z" transform="translate(-232 -134.75)"/><path class="cls-27" d="M385.52,306.46l4-1.38c-.59,2.48-2.55,2.65-4.57,2.71l-.43-.45C384.6,306.75,384.84,306.37,385.52,306.46Z" transform="translate(-232 -134.75)"/><path class="cls-27" d="M393.57,302.11a9.28,9.28,0,0,1,2.63-2.32A2.12,2.12,0,0,1,393.57,302.11Z" transform="translate(-232 -134.75)"/><path class="cls-17" d="M410.25,250.46a3.1,3.1,0,0,1-2.15-1C408.94,249.52,410.2,248.71,410.25,250.46Z" transform="translate(-232 -134.75)"/><path class="cls-27" d="M390.6,303.8l1.58-.66c0,1.19-.67,1.54-1.75,1.34A5.2,5.2,0,0,1,390.6,303.8Z" transform="translate(-232 -134.75)"/><path class="cls-27" d="M396.2,299.79a1,1,0,0,1,.58-.9c.19.14.55.31.53.41C397.18,299.92,396.62,299.71,396.2,299.79Z" transform="translate(-232 -134.75)"/><path class="cls-27" d="M389.55,305.16c.1-.52.5-.67,1-.72C390.44,305,390.14,305.28,389.55,305.16Z" transform="translate(-232 -134.75)"/><path class="cls-17" d="M411.29,251.17l-.91-.66C411,250.27,411.24,250.59,411.29,251.17Z" transform="translate(-232 -134.75)"/><path class="cls-14" d="M336.92,252.53c1.55-.32,3.08-.75,4.65-.94,5.17-.65,9,1.54,11.6,5.89,3.27,5.47,2.19,9.26-3.49,12.94-2,1.81-3.83.93-5.56-.3-4.92-3.49-5.4-8.53-1.23-15a12.22,12.22,0,0,0-6.69,3.13c-1.14.93-2.14,2.57-4.05,1.47l-.66-.89a5.15,5.15,0,0,1,.86-3.07C333,253.13,333.46,252.82,336.92,252.53Z" transform="translate(-232 -134.75)"/><path class="cls-29" d="M332.15,259.75c1.6,0,2.07-1.48,3.07-2.28,2.95-2.36,6-4.47,10.44-3.18-4.14,3.21-5.69,7.13-3.66,11.91,1.39,3.26,3.8,4.45,7.68,4.22-2.78,2.46-8.42,3-11.63,1-1.79-1.11-3.4-2.5-5.09-3.76C331.92,265.11,332.16,262.41,332.15,259.75Z" transform="translate(-232 -134.75)"/><path class="cls-23" d="M380.17,289.37a1.07,1.07,0,0,0-.8.8c-1.14.37-1.74,1.83-3.19,1.61a4.47,4.47,0,0,0-4.54-1.54c-4.27.67-8.33.08-11.89-2.64a2.29,2.29,0,0,1-.68-3,2.08,2.08,0,0,1,1.15-.65c5.67,3,11.16,1.79,16.66-.63a3.18,3.18,0,0,1,4.26,1.06C382.35,286.28,381.68,287.94,380.17,289.37Z" transform="translate(-232 -134.75)"/><path class="cls-20" d="M359.39,284.6c.05.85-.31,1.84.77,2.36,2.48,3.29,6,3.29,9.67,3.28,1.37,0,3.93-.9,3.12,2.32l-1.55.09c-4.39,2.9-9.5,1.91-12.84-2.49a6.88,6.88,0,0,1-.83-4,5.43,5.43,0,0,1,.82-3.19C359.94,283,359.85,283.67,359.39,284.6Z" transform="translate(-232 -134.75)"/><path class="cls-18" d="M373,292.56c0-1.82-1.37-1.55-2.54-1.58-2.47-.07-5,.27-7.38-.75-1.56-.66-2.8-1.4-2.87-3.27,4.83,3.17,10.07,2.9,15.14,1.57,1.2,1.12.75,2.24.88,3.25A5,5,0,0,1,373,292.56Z" transform="translate(-232 -134.75)"/><path class="cls-23" d="M358.56,290.16c3.86,3,8.09,4.08,12.84,2.49,0,.39,0,.79-.09,1.17a4.29,4.29,0,0,1-.28.77c-1.23.78-2.78.16-4.1.93a2.49,2.49,0,0,1-2.93-.35,7.65,7.65,0,0,0-3.43-1.78C358.69,293,358.46,291.71,358.56,290.16Z" transform="translate(-232 -134.75)"/><path class="cls-24" d="M326.51,266.14a5.07,5.07,0,0,1,4-7.21c-.06.65.1,1.7-.24,1.89C328.15,262,328.23,264.71,326.51,266.14Z" transform="translate(-232 -134.75)"/><path class="cls-28" d="M383.34,303.6l-1.17.42-.79-.6A1.2,1.2,0,0,1,383.34,303.6Z" transform="translate(-232 -134.75)"/><path class="cls-28" d="M385.92,302.32c-.36.67-1,.75-1.68.89C384.42,302.18,385.14,302.2,385.92,302.32Z" transform="translate(-232 -134.75)"/><path class="cls-15" d="M336.92,252.53l-4.57,3.26c-.9-4.21-4.22-7.57-4.24-12.09v-2.39c1.15.09,2.41-.32,3.63.92a11.69,11.69,0,0,0,4,7.09A3.56,3.56,0,0,1,336.92,252.53Z" transform="translate(-232 -134.75)"/><path class="cls-12" d="M385.52,306.46l-1,.88-2.74.56c-.22-1-1.29-.7-2-1.39C381.82,306.1,383.62,305,385.52,306.46Z" transform="translate(-232 -134.75)"/><path class="cls-12" d="M378.34,307.34c-1.48.69-2.69.51-4.52.17A6.14,6.14,0,0,1,378.34,307.34Z" transform="translate(-232 -134.75)"/><path class="cls-12" d="M363,307.84a2.36,2.36,0,0,1,3.16-.4c-1,.62-2.09.25-3.08.44Z" transform="translate(-232 -134.75)"/><path class="cls-8" d="M402.36,251.6l5.9,2.49a.46.46,0,0,1,.77.06l-.06-.05c.29.28.57.56.85.85l0,0a2.25,2.25,0,0,1,1.28,1.48c1,3,1,5.82-1.71,8A9.72,9.72,0,0,1,401,267c-4.84-.88-7-5-5.56-10.66a6.12,6.12,0,0,1,1.69-3.1C398.67,252.1,400.2,250.86,402.36,251.6Z" transform="translate(-232 -134.75)"/><path class="cls-26" d="M380.17,289.37a3.42,3.42,0,0,1,.1-.79c.54-1.47,1.46-3.06-.17-4.32-1.36-1.05-2.57-.11-4,.52a40.4,40.4,0,0,1-7.09,2.16c-3.36.83-6-1.07-8.86-2.38a4.36,4.36,0,0,1-.61-3c.47-.91.73-2.07,2.16-1.84.37,2.78,2,4.53,4.84,5.52,2.93-2.16,7.3-1.06,10.29-3.75.15-1.69-1-2.81-1.4-4.1A3.83,3.83,0,0,1,377,275c.34,0,.82,0,1.09.15,3.17,2.41,5.46,8.92,4.43,12.48A2.2,2.2,0,0,1,380.17,289.37Z" transform="translate(-232 -134.75)"/><path class="cls-29" d="M397.87,253.33c-3.76,6-2.69,10.66,3.12,13.69-6.92,2.42-11.43-.74-12-7.61,2.38-2.61,4-6,7.77-7.15C397.65,252.12,398,252.51,397.87,253.33Z" transform="translate(-232 -134.75)"/><path class="cls-23" d="M361.75,279.75l-1.57,1.63c-.68-.34-.36-1.19-.84-1.64.47-2.79,2.12-5.11,3.3-7.58,2.34-4.84,1.72-9.66.88-14.59a8.35,8.35,0,0,1,0-1.34c1.71-.89,2.57-.18,3,1.56,1.69,6.52.7,12.5-3.45,17.91A5.48,5.48,0,0,0,361.75,279.75Z" transform="translate(-232 -134.75)"/><path class="cls-29" d="M409.36,264.44c1.55-2.8,2.44-5.65.7-8.72a.8.8,0,0,1,1.16,0,2.48,2.48,0,0,0,1.75.75l0,.83a.47.47,0,0,1,.19.54c-.07.17-.14.26-.21.26l0,2.29c-.41.5-.28,1.25-.79,1.7v0c-.45.45-.3,1.24-.9,1.6Z" transform="translate(-232 -134.75)"/><path class="cls-18" d="M359.34,279.74c.77.29.8,1,.84,1.64,0,1.06,0,2.12,0,3.18l-.81,0c-.06-.66-.07-1.34-.84-1.63A5.11,5.11,0,0,1,359.34,279.74Z" transform="translate(-232 -134.75)"/><path class="cls-26" d="M392.37,297.59c-.74-.38-1.87.18-2.32-.94,1.4-.65,1.4-.65,2.42.85Z" transform="translate(-232 -134.75)"/><path class="cls-26" d="M411.29,263.7c.11-.64.18-1.3.9-1.6C412.2,262.81,412.2,263.51,411.29,263.7Z" transform="translate(-232 -134.75)"/><path class="cls-26" d="M412.18,262.12a1.72,1.72,0,0,1,.79-1.7C413,261.13,413.05,261.83,412.18,262.12Z" transform="translate(-232 -134.75)"/><path class="cls-26" d="M413,258.13l0-.8C413.73,257.61,413.67,257.88,413,258.13Z" transform="translate(-232 -134.75)"/><path class="cls-30" d="M397.87,253.33a1.82,1.82,0,0,0-1.07-1.07c1.76-1,3.44-2.62,5.56-.66C400.6,251.5,399.34,252.68,397.87,253.33Z" transform="translate(-232 -134.75)"/><path class="cls-30" d="M411.22,255.75l-1.16,0a3.07,3.07,0,0,1-.39-.5c0-.06.07-.2.12-.3C410.77,254.32,411,255.09,411.22,255.75Z" transform="translate(-232 -134.75)"/><path class="cls-30" d="M409.82,255c-.58,0-.8-.33-.85-.85C409.73,253.91,410.08,254.13,409.82,255Z" transform="translate(-232 -134.75)"/><path class="cls-30" d="M409,254.15h-.39l-.38-.07a1.3,1.3,0,0,1,0-.78l-.05,0C408.8,253.26,409.25,253.35,409,254.15Z" transform="translate(-232 -134.75)"/><path class="cls-30" d="M408.23,253.31l-.54-.34c.51-.33.51,0,.49.38Z" transform="translate(-232 -134.75)"/></svg>